<svg xmlns="http://www.w3.org/2000/svg"  viewBox="0 0 50 50" width="50px" height="50px"><path d="M 35.603516 10.011719 C 32.289516 9.8807187 29.208828 10.832156 26.673828 12.535156 C 24.186828 14.207156 21.212797 15 18.216797 15 C 16.846797 15 15.471156 14.86575 14.160156 14.46875 C 12.507156 13.96775 10.691781 13.843703 8.8007812 14.220703 C 4.1397813 15.150703 0.54454687 19.111844 0.060546875 23.839844 C -0.61545312 30.435844 4.542 36 11 36 C 12.087 36 13.133047 35.838969 14.123047 35.542969 C 15.488047 35.133969 16.921703 35 18.345703 35 C 21.322703 35 24.247609 35.846094 26.724609 37.496094 C 29.094609 39.075094 31.937 40 35 40 C 43.516 40 50.375375 32.902781 49.984375 24.300781 C 49.635375 16.618781 43.286516 10.314719 35.603516 10.011719 z M 8.8710938 19.005859 C 9.9000586 18.952324 10.788125 19.215547 11.25 19.388672 C 11.455 19.465672 11.591797 19.657953 11.591797 19.876953 L 11.59375 20.705078 C 11.59475 21.057078 11.254969 21.295312 10.917969 21.195312 C 10.310969 21.014312 9.6432813 20.924297 9.2382812 20.904297 C 8.5362813 20.869297 8.0532969 21.145281 7.9042969 21.363281 C 7.7522969 21.585281 7.7858906 22.049 7.9628906 22.25 C 8.6428906 23.02 10.295719 23.237156 11.136719 23.910156 C 12.080719 24.666156 12.1245 25.147344 12.1875 25.652344 C 12.2845 26.425344 11.988672 27.481156 11.513672 27.910156 C 11.038672 28.340156 10.531141 28.790813 8.7441406 28.882812 C 7.4741406 28.947813 6.4951562 28.569703 6.0351562 28.345703 C 5.8551563 28.257703 5.7460937 28.076953 5.7460938 27.876953 L 5.7460938 26.980469 C 5.7460938 26.610469 6.1198906 26.344422 6.4628906 26.482422 C 6.9098906 26.662422 7.5330937 26.851812 8.2460938 26.882812 C 9.5470938 26.939812 10.036875 26.623109 10.046875 26.162109 C 10.072875 24.971109 8.1976875 24.826969 6.8046875 24.042969 C 5.4636875 23.287969 4.6577344 20.72825 6.9277344 19.53125 C 7.5858594 19.184375 8.2537148 19.03798 8.8710938 19.005859 z M 16.494141 21.40625 C 17.18707 21.411043 17.886047 21.557219 18.498047 21.917969 C 20.682047 23.207969 20.855031 26.510891 18.957031 28.087891 C 17.440031 29.348891 15.220703 28.675781 15.220703 28.675781 L 15.220703 30.478516 C 15.220703 30.766516 14.987219 31 14.699219 31 L 13.601562 31 C 13.313562 31 13.080078 30.766516 13.080078 30.478516 L 13.080078 23.080078 C 13.080078 22.744078 13.233625 22.416422 13.515625 22.232422 C 14.203125 21.783672 15.339258 21.398262 16.494141 21.40625 z M 24.779297 21.40625 C 25.458297 21.40625 26.98675 21.584625 27.96875 23.015625 C 28.82175 24.261625 28.58575 26.304328 27.96875 27.236328 C 27.60375 27.787328 26.847344 28.771031 24.777344 28.832031 C 22.707344 28.893031 21.772547 27.74125 21.435547 27.28125 C 21.098547 26.82125 20.388562 24.917391 21.351562 23.150391 C 22.229563 21.539391 23.825297 21.40625 24.779297 21.40625 z M 33.121094 21.40625 C 33.800094 21.40625 35.3305 21.584625 36.3125 23.015625 C 37.1655 24.261625 36.927547 26.304328 36.310547 27.236328 C 35.945547 27.787328 35.191094 28.771031 33.121094 28.832031 C 31.051094 28.893031 30.114344 27.74125 29.777344 27.28125 C 29.440344 26.82125 28.730359 24.917391 29.693359 23.150391 C 30.571359 21.539391 32.167094 21.40625 33.121094 21.40625 z M 41.248047 21.433594 C 41.53275 21.441346 41.826 21.475844 42.125 21.542969 C 44.517 22.079969 44.501953 24.121094 44.501953 24.121094 L 44.501953 28.3125 L 44.5 28.3125 C 44.5 28.6005 44.266516 28.835938 43.978516 28.835938 L 42.84375 28.835938 C 42.55575 28.835938 42.322266 28.6005 42.322266 28.3125 L 42.322266 24.519531 C 42.123266 22.570531 39.884766 23.599609 39.884766 23.599609 L 39.884766 28.3125 C 39.884766 28.6005 39.651281 28.835938 39.363281 28.835938 L 38.214844 28.835938 C 37.926844 28.835938 37.693359 28.6005 37.693359 28.3125 L 37.693359 22.601562 C 37.693359 22.601562 39.255125 21.37933 41.248047 21.433594 z M 24.615234 23.261719 C 24.615234 23.261719 23.136281 23.262531 23.113281 25.144531 C 23.090281 27.026531 24.693359 27.029297 24.693359 27.029297 C 24.693359 27.029297 26.307594 27.141141 26.308594 25.119141 C 26.308594 23.154141 24.615234 23.261719 24.615234 23.261719 z M 32.957031 23.261719 C 32.957031 23.261719 31.478078 23.262531 31.455078 25.144531 C 31.432078 27.026531 33.035156 27.029297 33.035156 27.029297 C 33.035156 27.029297 34.649391 27.141141 34.650391 25.119141 C 34.651391 23.154141 32.957031 23.261719 32.957031 23.261719 z M 16.458984 23.300781 C 16.083109 23.266656 15.645125 23.299656 15.265625 23.472656 L 15.265625 26.753906 C 15.265625 26.753906 17.095875 27.558578 17.796875 26.142578 C 18.498875 24.726578 17.647297 23.794297 17.279297 23.529297 C 17.149297 23.435797 16.834859 23.334906 16.458984 23.300781 z"/></svg>