<svg width="104" height="20" viewBox="0 0 104 20" fill="none" xmlns="http://www.w3.org/2000/svg">
<path fill-rule="evenodd" clip-rule="evenodd" d="M9 2.99999C9.38435 2.0918 11.6157 2.0918 12 2.99999L13 6.99999H18C18.9986 7.07841 19.761 8.35911 19 8.99999L15 12L16 17C16.2325 17.9579 14.8545 18.5127 14 18L11 15L7 18C6.14551 18.5127 4.7675 17.9571 5 17L6 12L2 8.99999C1.23903 8.35911 2.00138 7.07841 3 6.99999H8L9 2.99999Z" fill="#33CA0E"/>
<path fill-rule="evenodd" clip-rule="evenodd" d="M30 2.99999C30.3843 2.0918 32.6157 2.0918 33 2.99999L34 6.99999H39C39.9986 7.07841 40.761 8.35911 40 8.99999L36 12L37 17C37.2325 17.9579 35.8545 18.5127 35 18L32 15L28 18C27.1455 18.5127 25.7675 17.9571 26 17L27 12L23 8.99999C22.239 8.35911 23.0014 7.07841 24 6.99999H29L30 2.99999Z" fill="#33CA0E"/>
<path fill-rule="evenodd" clip-rule="evenodd" d="M51 2.99999C51.3843 2.0918 53.6157 2.0918 54 2.99999L55 6.99999H60C60.9986 7.07841 61.761 8.35911 61 8.99999L57 12L58 17C58.2325 17.9579 56.8545 18.5127 56 18L53 15L49 18C48.1455 18.5127 46.7675 17.9571 47 17L48 12L44 8.99999C43.239 8.35911 44.0014 7.07841 45 6.99999H50L51 2.99999Z" fill="#33CA0E"/>
<path fill-rule="evenodd" clip-rule="evenodd" d="M72 2.99999C72.3843 2.0918 74.6157 2.0918 75 2.99999L76 6.99999H81C81.9986 7.07841 82.761 8.35911 82 8.99999L78 12L79 17C79.2325 17.9579 77.8545 18.5127 77 18L74 15L70 18C69.1455 18.5127 67.7675 17.9571 68 17L69 12L65 8.99999C64.239 8.35911 65.0014 7.07841 66 6.99999H71L72 2.99999Z" fill="#33CA0E"/>
<path d="M93 3.00002C93.0346 2.91145 92.9241 3.05335 93 3.00002C93.0758 2.94669 92.9086 3.00002 93 3.00002C93.0913 3.00002 93.9241 2.94669 94 3.00002C94.0758 3.05335 93.9653 2.91145 94 3.00002L96 8.00002C96.0326 8.08212 95.9313 7.94776 96 8.00002C96.0686 8.05228 95.9154 7.99294 96 8.00002H101C101.409 8.03436 101.311 8.72101 101 9.00002L97 12C96.9356 12.0577 97.0263 12.9157 97 13C96.9737 13.0844 96.9806 12.9137 97 13L98 17C98.0211 17.0928 98.0315 17.9106 98 18C97.9684 18.0895 98.0736 17.944 98 18C97.9264 18.0561 98.0909 17.9963 98 18C97.9091 18.0038 98.0776 18.0498 98 18L94 15C93.9277 14.9538 93.0847 15 93 15C92.9153 15 93.0723 14.9538 93 15L89 18C88.9224 18.0498 89.0909 18.0038 89 18C88.9091 17.9963 89.0736 18.0561 89 18C88.9264 17.944 89.0315 18.0895 89 18C88.9684 17.9106 88.9788 17.0928 89 17L90 13C90.0195 12.9137 90.0263 13.0844 90 13C89.9737 12.9157 90.0644 12.0576 90 12L86 9.00002C85.931 8.93787 86.0245 9.0918 86 9.00002C85.9754 8.90824 85.9719 9.09067 86 9.00002C86.0281 8.90937 85.9287 8.05916 86 8.00002C86.0713 7.94088 85.9093 8.00782 86 8.00002H91C91.0846 7.99294 90.9313 8.05228 91 8.00002C91.0686 7.94776 90.9674 8.08212 91 8.00002L93 3.00002Z" stroke="#33CA0E" stroke-width="1.5" stroke-linecap="round" stroke-linejoin="round"/>
</svg>
