<svg width="30" height="31" viewBox="0 0 30 31" fill="none" xmlns="http://www.w3.org/2000/svg">
<path d="M28 16C28 15.0189 28.16 13.9057 28 13H15V18H22C21.6861 19.7296 21.4342 22.0189 20 23V26H24C26.5606 23.5912 28 20.2138 28 16Z" fill="#4285F4"/>
<path d="M15 30C18.6452 30 21.7662 28.2626 24 26L20 23C18.7911 23.8889 16.8165 24 15 24C11.4836 24 9.06166 21.5017 8 18H3V22C5.22151 26.8418 9.72238 30 15 30Z" fill="#34A853"/>
<path d="M7.00001 18C6.72756 17.1316 7.00001 15.9539 7.00001 15C7.00001 14.0461 6.72756 13.8684 7.00001 13V9H2.00001C1.04645 11.0169 0.999169 12.7429 1.00001 15C1.00001 17.3355 1.07741 20.0461 2.00001 22L7.00001 18Z" fill="#FBBC05"/>
<path d="M15 7C16.9729 7 18.6073 7.53199 20 9L24 5C21.6728 2.60943 18.6222 1 15 1C9.74695 1 5.21117 4.15825 3 9L7 13C8.05672 9.49832 11.5 7 15 7Z" fill="#EA4335"/>
</svg>
