<svg width="144" height="49" viewBox="0 0 144 49" fill="none" xmlns="http://www.w3.org/2000/svg">
<path d="M17.3902 12.5048V29.0637C17.3902 31.6272 16.6628 33.6018 15.2078 34.9874C13.7759 36.3731 11.836 37.0659 9.38795 37.0659C6.82445 37.0659 4.76903 36.3385 3.2217 34.8835C1.67436 33.4286 0.900689 31.3616 0.900689 28.6826H6.78981C6.78981 29.6988 6.99766 30.4724 7.41337 31.0036C7.82907 31.5117 8.42953 31.7657 9.21474 31.7657C9.93068 31.7657 10.4849 31.5348 10.8776 31.0729C11.2702 30.611 11.4665 29.9413 11.4665 29.0637V12.5048H17.3902ZM31.3206 37.1006C29.4268 37.1006 27.7178 36.6964 26.1936 35.8881C24.6925 35.0798 23.5031 33.9251 22.6255 32.4239C21.771 30.9228 21.3437 29.1676 21.3437 27.1584C21.3437 25.1722 21.7825 23.4286 22.6601 21.9274C23.5377 20.4032 24.7386 19.2369 26.2629 18.4286C27.7871 17.6203 29.4961 17.2161 31.3899 17.2161C33.2836 17.2161 34.9926 17.6203 36.5169 18.4286C38.0411 19.2369 39.242 20.4032 40.1196 21.9274C40.9972 23.4286 41.436 25.1722 41.436 27.1584C41.436 29.1445 40.9857 30.8997 40.085 32.4239C39.2074 33.9251 37.9949 35.0798 36.4476 35.8881C34.9234 36.6964 33.2144 37.1006 31.3206 37.1006ZM31.3206 31.9736C32.4522 31.9736 33.4107 31.5579 34.1959 30.7265C35.0042 29.8951 35.4083 28.7057 35.4083 27.1584C35.4083 25.611 35.0157 24.4217 34.2305 23.5903C33.4684 22.7588 32.5215 22.3431 31.3899 22.3431C30.2352 22.3431 29.2767 22.7588 28.5146 23.5903C27.7525 24.3986 27.3714 25.5879 27.3714 27.1584C27.3714 28.7057 27.7409 29.8951 28.48 30.7265C29.2421 31.5579 30.189 31.9736 31.3206 31.9736Z" fill="#F2994A"/>
<path d="M69.0889 41.1377C79.5118 41.1377 87.9608 32.6887 87.9608 22.2659C87.9608 11.843 79.5118 3.39398 69.0889 3.39398C58.6661 3.39398 50.217 11.843 50.217 22.2659C50.217 32.6887 58.6661 41.1377 69.0889 41.1377Z" stroke="#F2994A" stroke-width="4.44044" stroke-linejoin="round"/>
<path d="M82.6566 35.8337L92.0759 45.2529M75.3688 14.8759C74.545 14.05 73.5661 13.395 72.4884 12.9487C71.4107 12.5023 70.2554 12.2733 69.0889 12.2749C66.6355 12.2749 64.4153 13.2684 62.809 14.8759H75.3688Z" stroke="#F2994A" stroke-width="4.44044" stroke-linecap="round" stroke-linejoin="round"/>
<path d="M107.365 20.23C107.919 19.3293 108.716 18.6018 109.755 18.0475C110.794 17.4933 111.984 17.2161 113.323 17.2161C114.917 17.2161 116.36 17.6203 117.653 18.4286C118.947 19.2369 119.963 20.3917 120.702 21.8928C121.464 23.3939 121.845 25.1376 121.845 27.1237C121.845 29.1099 121.464 30.8651 120.702 32.3893C119.963 33.8904 118.947 35.0567 117.653 35.8881C116.36 36.6964 114.917 37.1006 113.323 37.1006C111.96 37.1006 110.771 36.835 109.755 36.3038C108.739 35.7496 107.942 35.0221 107.365 34.1214V36.8235H101.441V11.1885H107.365V20.23ZM115.817 27.1237C115.817 25.6457 115.402 24.4909 114.57 23.6595C113.762 22.805 112.757 22.3778 111.556 22.3778C110.378 22.3778 109.374 22.805 108.542 23.6595C107.734 24.514 107.33 25.6803 107.33 27.1584C107.33 28.6364 107.734 29.8027 108.542 30.6572C109.374 31.5117 110.378 31.9389 111.556 31.9389C112.734 31.9389 113.739 31.5117 114.57 30.6572C115.402 29.7796 115.817 28.6018 115.817 27.1237ZM133.163 37.1006C131.477 37.1006 129.976 36.8119 128.659 36.2345C127.343 35.6572 126.304 34.872 125.542 33.8789C124.78 32.8627 124.352 31.7311 124.26 30.484H130.114C130.184 31.1537 130.495 31.6965 131.05 32.1122C131.604 32.5279 132.285 32.7357 133.094 32.7357C133.833 32.7357 134.398 32.5971 134.791 32.32C135.207 32.0198 135.415 31.6387 135.415 31.1768C135.415 30.6226 135.126 30.2184 134.549 29.9644C133.971 29.6872 133.036 29.387 131.743 29.0637C130.357 28.7403 129.202 28.4055 128.278 28.0591C127.355 27.6895 126.558 27.1237 125.888 26.3616C125.218 25.5764 124.883 24.5256 124.883 23.2092C124.883 22.1007 125.184 21.096 125.784 20.1953C126.408 19.2716 127.308 18.5441 128.486 18.0129C129.687 17.4817 131.107 17.2161 132.747 17.2161C135.172 17.2161 137.077 17.8166 138.463 19.0175C139.872 20.2184 140.68 21.812 140.888 23.7981H135.415C135.322 23.1284 135.022 22.5972 134.514 22.2046C134.029 21.812 133.382 21.6157 132.574 21.6157C131.881 21.6157 131.35 21.7542 130.98 22.0314C130.611 22.2854 130.426 22.6434 130.426 23.1053C130.426 23.6595 130.715 24.0752 131.292 24.3524C131.893 24.6295 132.816 24.9066 134.064 25.1838C135.495 25.5533 136.662 25.9228 137.562 26.2923C138.463 26.6387 139.248 27.2161 139.918 28.0244C140.611 28.8096 140.969 29.872 140.992 31.2115C140.992 32.3431 140.669 33.3593 140.022 34.26C139.398 35.1376 138.486 35.8304 137.285 36.3385C136.107 36.8466 134.733 37.1006 133.163 37.1006Z" fill="#F2994A"/>
</svg>
