<svg width="54" height="54" viewBox="0 0 54 54" fill="none" xmlns="http://www.w3.org/2000/svg">
<path d="M21.1159 48.3723C22.9861 48.884 24.9161 49.1448 26.8551 49.1478L27.164 49.1456C28.271 49.1318 29.3565 48.8384 30.3197 48.2927C31.2829 47.7469 32.0925 46.9665 32.6732 46.024C33.8605 44.1051 33.9876 41.7459 33.0084 39.7153L32.5747 38.8062C31.5823 36.7427 32.3622 34.8719 33.4246 33.8095C34.487 32.7471 36.3621 31.9673 38.4191 32.9596H38.4213L39.326 33.3955C40.3208 33.8765 41.4211 34.0981 42.5245 34.0395C43.628 33.9809 44.6987 33.644 45.6369 33.0604C46.58 32.48 47.3609 31.6705 47.9071 30.7073C48.4532 29.7441 48.7469 28.6583 48.7607 27.5511C48.7881 25.5095 48.5277 23.4742 47.9874 21.5052C45.7136 13.1219 38.4519 6.71019 29.9241 5.547C23.026 4.61164 16.2529 6.86572 11.3679 11.7528C6.48299 16.64 4.21796 23.4022 5.1599 30.309C6.32089 38.839 12.7348 46.0985 21.1159 48.3723ZM34.5221 14.0989C35.3935 14.0989 36.2293 14.4451 36.8455 15.0613C37.4617 15.6775 37.8079 16.5133 37.8079 17.3848C37.8079 18.2562 37.4617 19.092 36.8455 19.7082C36.2293 20.3244 35.3935 20.6706 34.5221 20.6706C33.6506 20.6706 32.8148 20.3244 32.1986 19.7082C31.5824 19.092 31.2362 18.2562 31.2362 17.3848C31.2362 16.5133 31.5824 15.6775 32.1986 15.0613C32.8148 14.4451 33.6506 14.0989 34.5221 14.0989ZM23.5693 11.9084C24.4408 11.9084 25.2765 12.2546 25.8927 12.8708C26.5089 13.487 26.8551 14.3227 26.8551 15.1942C26.8551 16.0657 26.5089 16.9014 25.8927 17.5176C25.2765 18.1338 24.4408 18.48 23.5693 18.48C22.6978 18.48 21.8621 18.1338 21.2459 17.5176C20.6297 16.9014 20.2835 16.0657 20.2835 15.1942C20.2835 14.3227 20.6297 13.487 21.2459 12.8708C21.8621 12.2546 22.6978 11.9084 23.5693 11.9084ZM20.2835 34.9223C20.2835 35.7938 19.9373 36.6295 19.3211 37.2458C18.7049 37.862 17.8691 38.2082 16.9976 38.2082C16.1262 38.2082 15.2904 37.862 14.6742 37.2458C14.058 36.6295 13.7118 35.7938 13.7118 34.9223C13.7118 34.0509 14.058 33.2151 14.6742 32.5989C15.2904 31.9827 16.1262 31.6365 16.9976 31.6365C17.8691 31.6365 18.7049 31.9827 19.3211 32.5989C19.9373 33.2151 20.2835 34.0509 20.2835 34.9223ZM14.8071 20.6837C15.6788 20.684 16.5148 21.0306 17.131 21.6472C17.7472 22.2638 18.0932 23.1 18.0929 23.9717C18.0926 24.8435 17.7461 25.6794 17.1294 26.2956C16.5128 26.9118 15.6766 27.2579 14.8049 27.2576C13.9332 27.2573 13.0972 26.9107 12.481 26.2941C11.8648 25.6775 11.5188 24.8413 11.5191 23.9696C11.5194 23.0978 11.8659 22.2619 12.4826 21.6457C13.0992 21.0295 13.9353 20.6834 14.8071 20.6837Z" fill="#FF9A62"/>
</svg>
