<svg width="53" height="54" viewBox="0 0 53 54" fill="none" xmlns="http://www.w3.org/2000/svg">
<g clip-path="url(#clip0_22_13736)">
<path d="M13.7253 20.6707H44.0462V15.742C44.0462 13.0209 42.0838 10.8132 39.6651 10.8132H25.0614L19.2199 4.24158H4.61621C2.19657 4.24158 0.235107 6.44822 0.235107 9.17032V42.8912L8.49897 24.2954C9.49019 22.0672 11.4982 20.6707 13.7253 20.6707ZM49.8055 23.9566H13.7253C12.6209 23.9566 11.6077 24.6548 11.1149 25.774L0.235107 50.2432H41.0433C42.1495 50.2432 43.1608 49.5396 43.6555 48.4268L52.4177 28.7118C53.4655 26.5236 52.0508 23.9566 49.8055 23.9566Z" fill="#F2994A"/>
</g>
<defs>
<clipPath id="clip0_22_13736">
<rect width="52.5733" height="52.5733" fill="white" transform="translate(0.235107 0.955933)"/>
</clipPath>
</defs>
</svg>
