<svg width="332" height="131" viewBox="0 0 332 131" fill="none" xmlns="http://www.w3.org/2000/svg">
<g filter="url(#filter0_bd_22_13789)">
<rect x="10" y="5" width="311.102" height="110.853" rx="16.8235" fill="#FFFDFD" fill-opacity="0.6" shape-rendering="crispEdges"/>
<path d="M82.1567 56.5149C76.1634 43.616 73.0458 38.7162 63.254 38.9212C59.7658 38.9922 60.6017 36.3925 57.9415 37.3782C55.2865 38.364 57.5656 39.8071 54.8475 42.0388C47.2192 48.3029 47.921 54.0965 51.4592 67.9049C52.9496 73.7221 47.8658 74.006 49.8767 79.6419C51.3462 83.7531 62.1762 85.4749 73.6004 81.2375C85.0272 76.9974 92.2271 68.5831 90.7577 64.4718C88.7468 58.8334 84.6829 61.9457 82.1567 56.5149ZM72.3623 77.7624C62.1578 81.5476 53.7724 79.3238 53.4175 78.3328C52.8077 76.6242 56.7113 70.9305 68.3773 66.6011C80.0433 62.2717 86.5545 63.8778 87.2353 65.7835C87.6375 66.9112 82.5694 73.9745 72.3623 77.7624ZM69.0817 68.5778C63.7482 70.5572 60.0418 72.8205 57.6392 74.8577C59.3294 76.3928 62.4943 76.7661 65.6461 75.5963C69.6601 74.1112 72.1284 70.6913 71.1531 67.9627L71.1111 67.8681C70.4513 68.0836 69.7757 68.3176 69.0817 68.5778Z" fill="#EB5757"/>
<path d="M135.966 43.8232H132.37L126.355 34.7175V43.8232H122.759V29.0607H126.355L132.37 38.2084V29.0607H135.966V43.8232ZM149.634 37.7668C149.634 38.1033 149.613 38.4538 149.571 38.8183H141.432C141.488 39.5473 141.72 40.1081 142.126 40.5006C142.547 40.8791 143.058 41.0684 143.661 41.0684C144.559 41.0684 145.182 40.6899 145.533 39.9328H149.36C149.164 40.7039 148.806 41.3979 148.288 42.0147C147.783 42.6316 147.145 43.1153 146.374 43.4657C145.603 43.8162 144.741 43.9915 143.787 43.9915C142.638 43.9915 141.614 43.7461 140.717 43.2555C139.82 42.7648 139.119 42.0638 138.614 41.1525C138.11 40.2412 137.857 39.1758 137.857 37.9561C137.857 36.7364 138.103 35.6709 138.593 34.7596C139.098 33.8483 139.799 33.1474 140.696 32.6567C141.593 32.166 142.624 31.9207 143.787 31.9207C144.923 31.9207 145.932 32.159 146.816 32.6356C147.699 33.1123 148.386 33.7923 148.877 34.6755C149.381 35.5587 149.634 36.5892 149.634 37.7668ZM145.953 36.8205C145.953 36.2036 145.743 35.7129 145.323 35.3484C144.902 34.9839 144.376 34.8017 143.745 34.8017C143.143 34.8017 142.631 34.9769 142.21 35.3274C141.804 35.6779 141.551 36.1756 141.453 36.8205H145.953ZM168.375 32.0889L165.2 43.8232H161.225L159.375 36.2106L157.461 43.8232H153.507L150.311 32.0889H153.907L155.568 40.4796L157.545 32.0889H161.351L163.349 40.4375L164.989 32.0889H168.375ZM177.799 29.0607V43.8232H174.203V29.0607H177.799ZM187.555 31.9627C188.929 31.9627 190.022 32.4113 190.835 33.3086C191.663 34.1918 192.076 35.4115 192.076 36.9677V43.8232H188.501V37.4514C188.501 36.6663 188.298 36.0564 187.891 35.6218C187.485 35.1872 186.938 34.9699 186.251 34.9699C185.564 34.9699 185.017 35.1872 184.611 35.6218C184.204 36.0564 184.001 36.6663 184.001 37.4514V43.8232H180.405V32.0889H184.001V33.6451C184.365 33.1263 184.856 32.7198 185.473 32.4254C186.09 32.1169 186.784 31.9627 187.555 31.9627ZM201.115 40.774V43.8232H199.286C197.982 43.8232 196.965 43.5078 196.236 42.8769C195.507 42.232 195.143 41.1876 195.143 39.7436V35.075H193.713V32.0889H195.143V29.2289H198.739V32.0889H201.094V35.075H198.739V39.7856C198.739 40.1361 198.823 40.3885 198.991 40.5427C199.159 40.6969 199.44 40.774 199.832 40.774H201.115ZM214.18 37.7668C214.18 38.1033 214.159 38.4538 214.117 38.8183H205.978C206.034 39.5473 206.266 40.1081 206.672 40.5006C207.093 40.8791 207.604 41.0684 208.207 41.0684C209.105 41.0684 209.728 40.6899 210.079 39.9328H213.906C213.71 40.7039 213.352 41.3979 212.834 42.0147C212.329 42.6316 211.691 43.1153 210.92 43.4657C210.149 43.8162 209.287 43.9915 208.333 43.9915C207.184 43.9915 206.16 43.7461 205.263 43.2555C204.366 42.7648 203.665 42.0638 203.16 41.1525C202.656 40.2412 202.403 39.1758 202.403 37.9561C202.403 36.7364 202.649 35.6709 203.139 34.7596C203.644 33.8483 204.345 33.1474 205.242 32.6567C206.139 32.166 207.17 31.9207 208.333 31.9207C209.469 31.9207 210.478 32.159 211.362 32.6356C212.245 33.1123 212.932 33.7923 213.423 34.6755C213.927 35.5587 214.18 36.5892 214.18 37.7668ZM210.5 36.8205C210.5 36.2036 210.289 35.7129 209.869 35.3484C209.448 34.9839 208.922 34.8017 208.291 34.8017C207.689 34.8017 207.177 34.9769 206.756 35.3274C206.35 35.6779 206.097 36.1756 205.999 36.8205H210.5ZM219.673 34.0446C220.093 33.3997 220.619 32.895 221.25 32.5305C221.881 32.152 222.582 31.9627 223.353 31.9627V35.769H222.364C221.467 35.769 220.794 35.9653 220.346 36.3578C219.897 36.7364 219.673 37.4093 219.673 38.3767V43.8232H216.077V32.0889H219.673V34.0446ZM230.35 40.4586L232.895 32.0889H236.722L232.558 43.8232H228.121L223.957 32.0889H227.805L230.35 40.4586ZM240.044 30.8692C239.413 30.8692 238.894 30.6869 238.488 30.3224C238.095 29.9439 237.899 29.4813 237.899 28.9345C237.899 28.3737 238.095 27.9111 238.488 27.5466C238.894 27.168 239.413 26.9788 240.044 26.9788C240.661 26.9788 241.166 27.168 241.558 27.5466C241.965 27.9111 242.168 28.3737 242.168 28.9345C242.168 29.4813 241.965 29.9439 241.558 30.3224C241.166 30.6869 240.661 30.8692 240.044 30.8692ZM241.832 32.0889V43.8232H238.236V32.0889H241.832ZM255.499 37.7668C255.499 38.1033 255.478 38.4538 255.436 38.8183H247.298C247.354 39.5473 247.585 40.1081 247.991 40.5006C248.412 40.8791 248.924 41.0684 249.527 41.0684C250.424 41.0684 251.048 40.6899 251.398 39.9328H255.226C255.029 40.7039 254.672 41.3979 254.153 42.0147C253.648 42.6316 253.01 43.1153 252.239 43.4657C251.468 43.8162 250.606 43.9915 249.653 43.9915C248.503 43.9915 247.48 43.7461 246.583 43.2555C245.685 42.7648 244.984 42.0638 244.48 41.1525C243.975 40.2412 243.723 39.1758 243.723 37.9561C243.723 36.7364 243.968 35.6709 244.459 34.7596C244.963 33.8483 245.664 33.1474 246.561 32.6567C247.459 32.166 248.489 31.9207 249.653 31.9207C250.788 31.9207 251.798 32.159 252.681 32.6356C253.564 33.1123 254.251 33.7923 254.742 34.6755C255.247 35.5587 255.499 36.5892 255.499 37.7668ZM251.819 36.8205C251.819 36.2036 251.609 35.7129 251.188 35.3484C250.767 34.9839 250.242 34.8017 249.611 34.8017C249.008 34.8017 248.496 34.9769 248.076 35.3274C247.669 35.6779 247.417 36.1756 247.319 36.8205H251.819ZM274.241 32.0889L271.065 43.8232H267.091L265.24 36.2106L263.326 43.8232H259.373L256.176 32.0889H259.772L261.434 40.4796L263.41 32.0889H267.217L269.214 40.4375L270.855 32.0889H274.241Z" fill="#333333"/>
<path d="M130.14 60.7983L126.755 67.3195V71.0291H125.077V67.3195L121.676 60.7983H123.546L125.916 65.818L128.286 60.7983H130.14ZM134.99 71.1615C134.225 71.1615 133.533 70.9898 132.915 70.6463C132.297 70.293 131.811 69.8023 131.457 69.1743C131.104 68.5364 130.928 67.8004 130.928 66.9662C130.928 66.1418 131.109 65.4107 131.472 64.7728C131.835 64.1349 132.331 63.6443 132.959 63.3008C133.587 62.9573 134.289 62.7856 135.064 62.7856C135.839 62.7856 136.541 62.9573 137.169 63.3008C137.797 63.6443 138.293 64.1349 138.656 64.7728C139.019 65.4107 139.2 66.1418 139.2 66.9662C139.2 67.7905 139.014 68.5217 138.641 69.1595C138.268 69.7974 137.758 70.293 137.11 70.6463C136.472 70.9898 135.766 71.1615 134.99 71.1615ZM134.99 69.7042C135.422 69.7042 135.825 69.6012 136.197 69.3951C136.58 69.189 136.889 68.8799 137.125 68.4677C137.36 68.0555 137.478 67.555 137.478 66.9662C137.478 66.3774 137.365 65.8818 137.14 65.4794C136.914 65.0672 136.615 64.7581 136.242 64.552C135.869 64.3459 135.466 64.2429 135.035 64.2429C134.603 64.2429 134.2 64.3459 133.827 64.552C133.464 64.7581 133.175 65.0672 132.959 65.4794C132.743 65.8818 132.635 66.3774 132.635 66.9662C132.635 67.8396 132.856 68.5168 133.298 68.9976C133.749 69.4687 134.313 69.7042 134.99 69.7042ZM148.205 62.918V71.0291H146.527V70.0722C146.262 70.4059 145.913 70.6709 145.482 70.8671C145.06 71.0536 144.608 71.1468 144.127 71.1468C143.489 71.1468 142.915 71.0143 142.405 70.7494C141.905 70.4844 141.507 70.0918 141.213 69.5717C140.928 69.0516 140.786 68.4235 140.786 67.6875V62.918H142.449V67.4372C142.449 68.1635 142.631 68.7228 142.994 69.1154C143.357 69.4981 143.853 69.6895 144.481 69.6895C145.109 69.6895 145.604 69.4981 145.967 69.1154C146.34 68.7228 146.527 68.1635 146.527 67.4372V62.918H148.205ZM158.438 62.7856C159.057 62.7856 159.606 62.918 160.087 63.183C160.578 63.448 160.96 63.8405 161.235 64.3607C161.52 64.8808 161.662 65.5089 161.662 66.2449V71.0291H159.999V66.4951C159.999 65.7689 159.817 65.2144 159.454 64.8317C159.091 64.4392 158.595 64.2429 157.967 64.2429C157.339 64.2429 156.839 64.4392 156.466 64.8317C156.103 65.2144 155.921 65.7689 155.921 66.4951V71.0291H154.243V60.1359H155.921V63.8602C156.206 63.5167 156.564 63.2517 156.996 63.0653C157.437 62.8788 157.918 62.7856 158.438 62.7856ZM163.243 66.9367C163.243 66.1222 163.41 65.4009 163.744 64.7728C164.087 64.1448 164.549 63.659 165.128 63.3155C165.716 62.9622 166.364 62.7856 167.071 62.7856C167.709 62.7856 168.263 62.9131 168.734 63.1683C169.215 63.4136 169.598 63.7228 169.882 64.0957V62.918H171.575V71.0291H169.882V69.822C169.598 70.2047 169.21 70.5236 168.719 70.7788C168.229 71.034 167.669 71.1615 167.041 71.1615C166.344 71.1615 165.707 70.9849 165.128 70.6316C164.549 70.2685 164.087 69.768 163.744 69.1301C163.41 68.4824 163.243 67.7513 163.243 66.9367ZM169.882 66.9662C169.882 66.4068 169.764 65.921 169.529 65.5089C169.303 65.0967 169.004 64.7826 168.631 64.5667C168.258 64.3508 167.856 64.2429 167.424 64.2429C166.992 64.2429 166.59 64.3508 166.217 64.5667C165.844 64.7728 165.54 65.082 165.304 65.4941C165.078 65.8965 164.966 66.3774 164.966 66.9367C164.966 67.4961 165.078 67.9868 165.304 68.4088C165.54 68.8308 165.844 69.1546 166.217 69.3804C166.6 69.5963 167.002 69.7042 167.424 69.7042C167.856 69.7042 168.258 69.5963 168.631 69.3804C169.004 69.1645 169.303 68.8504 169.529 68.4382C169.764 68.0163 169.882 67.5256 169.882 66.9662ZM176.723 71.1615C176.086 71.1615 175.511 71.0487 175.001 70.823C174.501 70.5874 174.103 70.2734 173.809 69.8809C173.514 69.4785 173.357 69.032 173.338 68.5413H175.075C175.104 68.8848 175.266 69.1743 175.56 69.4098C175.865 69.6355 176.243 69.7484 176.694 69.7484C177.165 69.7484 177.528 69.66 177.783 69.4834C178.048 69.2969 178.181 69.0614 178.181 68.7768C178.181 68.4726 178.034 68.2469 177.739 68.0997C177.455 67.9525 176.998 67.7905 176.37 67.6139C175.762 67.4471 175.266 67.2851 174.883 67.1281C174.501 66.9711 174.167 66.7307 173.882 66.4068C173.608 66.083 173.47 65.6561 173.47 65.1261C173.47 64.6943 173.598 64.3018 173.853 63.9485C174.108 63.5854 174.471 63.3008 174.942 63.0947C175.423 62.8886 175.973 62.7856 176.591 62.7856C177.513 62.7856 178.254 63.0211 178.814 63.4921C179.383 63.9534 179.687 64.5864 179.726 65.3911H178.048C178.019 65.028 177.872 64.7385 177.607 64.5226C177.342 64.3067 176.983 64.1987 176.532 64.1987C176.09 64.1987 175.752 64.2821 175.516 64.449C175.281 64.6158 175.163 64.8366 175.163 65.1114C175.163 65.3273 175.242 65.5089 175.399 65.6561C175.556 65.8033 175.747 65.921 175.973 66.0094C176.198 66.0879 176.532 66.1909 176.974 66.3185C177.562 66.4755 178.043 66.6374 178.416 66.8043C178.799 66.9613 179.128 67.1968 179.403 67.5108C179.677 67.8249 179.82 68.242 179.829 68.7621C179.829 69.2233 179.702 69.6355 179.447 69.9986C179.192 70.3617 178.828 70.6463 178.357 70.8524C177.896 71.0585 177.351 71.1615 176.723 71.1615ZM189.559 62.7856C190.197 62.7856 190.766 62.918 191.266 63.183C191.777 63.448 192.174 63.8405 192.459 64.3607C192.743 64.8808 192.886 65.5089 192.886 66.2449V71.0291H191.222V66.4951C191.222 65.7689 191.041 65.2144 190.678 64.8317C190.315 64.4392 189.819 64.2429 189.191 64.2429C188.563 64.2429 188.062 64.4392 187.689 64.8317C187.326 65.2144 187.145 65.7689 187.145 66.4951V71.0291H185.467V62.918H187.145V63.8454C187.42 63.5118 187.768 63.2517 188.19 63.0653C188.622 62.8788 189.078 62.7856 189.559 62.7856ZM198.544 71.1615C197.779 71.1615 197.087 70.9898 196.469 70.6463C195.851 70.293 195.365 69.8023 195.012 69.1743C194.658 68.5364 194.482 67.8004 194.482 66.9662C194.482 66.1418 194.663 65.4107 195.026 64.7728C195.389 64.1349 195.885 63.6443 196.513 63.3008C197.141 62.9573 197.843 62.7856 198.618 62.7856C199.393 62.7856 200.095 62.9573 200.723 63.3008C201.351 63.6443 201.847 64.1349 202.21 64.7728C202.573 65.4107 202.755 66.1418 202.755 66.9662C202.755 67.7905 202.568 68.5217 202.195 69.1595C201.822 69.7974 201.312 70.293 200.664 70.6463C200.026 70.9898 199.32 71.1615 198.544 71.1615ZM198.544 69.7042C198.976 69.7042 199.379 69.6012 199.752 69.3951C200.134 69.189 200.443 68.8799 200.679 68.4677C200.915 68.0555 201.032 67.555 201.032 66.9662C201.032 66.3774 200.919 65.8818 200.694 65.4794C200.468 65.0672 200.169 64.7581 199.796 64.552C199.423 64.3459 199.02 64.2429 198.589 64.2429C198.157 64.2429 197.754 64.3459 197.382 64.552C197.018 64.7581 196.729 65.0672 196.513 65.4794C196.297 65.8818 196.189 66.3774 196.189 66.9662C196.189 67.8396 196.41 68.5168 196.852 68.9976C197.303 69.4687 197.867 69.7042 198.544 69.7042ZM215.307 62.918L212.789 71.0291H211.023L209.389 65.0378L207.755 71.0291H205.989L203.457 62.918H205.164L206.857 69.4392L208.579 62.918H210.331L211.98 69.4098L213.658 62.918H215.307ZM221.238 61.8434C220.934 61.8434 220.679 61.7404 220.473 61.5343C220.267 61.3282 220.164 61.0731 220.164 60.7689C220.164 60.4646 220.267 60.2095 220.473 60.0034C220.679 59.7973 220.934 59.6943 221.238 59.6943C221.533 59.6943 221.783 59.7973 221.989 60.0034C222.195 60.2095 222.298 60.4646 222.298 60.7689C222.298 61.0731 222.195 61.3282 221.989 61.5343C221.783 61.7404 221.533 61.8434 221.238 61.8434ZM222.063 62.918V71.0291H220.385V62.918H222.063ZM228.358 62.7856C228.996 62.7856 229.565 62.918 230.066 63.183C230.576 63.448 230.974 63.8405 231.258 64.3607C231.543 64.8808 231.685 65.5089 231.685 66.2449V71.0291H230.022V66.4951C230.022 65.7689 229.84 65.2144 229.477 64.8317C229.114 64.4392 228.618 64.2429 227.99 64.2429C227.362 64.2429 226.862 64.4392 226.489 64.8317C226.126 65.2144 225.944 65.7689 225.944 66.4951V71.0291H224.266V62.918H225.944V63.8454C226.219 63.5118 226.567 63.2517 226.989 63.0653C227.421 62.8788 227.878 62.7856 228.358 62.7856ZM235.784 64.2871V68.7768C235.784 69.081 235.852 69.3018 235.99 69.4392C236.137 69.5668 236.382 69.6306 236.726 69.6306H237.756V71.0291H236.431C235.676 71.0291 235.097 70.8524 234.694 70.4991C234.292 70.1458 234.091 69.5717 234.091 68.7768V64.2871H233.134V62.918H234.091V60.9013H235.784V62.918H237.756V64.2871H235.784ZM246.737 66.7748C246.737 67.079 246.717 67.3538 246.678 67.5992H240.48C240.53 68.2469 240.77 68.767 241.202 69.1595C241.634 69.5521 242.164 69.7484 242.792 69.7484C243.694 69.7484 244.332 69.3705 244.705 68.6149H246.516C246.271 69.3607 245.824 69.9741 245.176 70.455C244.538 70.926 243.744 71.1615 242.792 71.1615C242.016 71.1615 241.32 70.9898 240.701 70.6463C240.093 70.293 239.612 69.8023 239.259 69.1743C238.915 68.5364 238.743 67.8004 238.743 66.9662C238.743 66.132 238.91 65.4009 239.244 64.7728C239.587 64.1349 240.063 63.6443 240.672 63.3008C241.29 62.9573 241.997 62.7856 242.792 62.7856C243.557 62.7856 244.239 62.9524 244.838 63.2861C245.436 63.6197 245.903 64.0908 246.236 64.6992C246.57 65.2979 246.737 65.9897 246.737 66.7748ZM244.985 66.2449C244.975 65.6266 244.754 65.131 244.323 64.7581C243.891 64.3852 243.356 64.1987 242.718 64.1987C242.139 64.1987 241.643 64.3852 241.231 64.7581C240.819 65.1212 240.574 65.6168 240.495 66.2449H244.985ZM250.066 64.0957C250.312 63.6835 250.636 63.3646 251.038 63.1389C251.45 62.9033 251.936 62.7856 252.495 62.7856V64.5226H252.068C251.411 64.5226 250.91 64.6894 250.567 65.0231C250.233 65.3567 250.066 65.9358 250.066 66.7601V71.0291H248.388V62.918H250.066V64.0957ZM257.173 69.5276L259.47 62.918H261.251L258.16 71.0291H256.158L253.081 62.918H254.877L257.173 69.5276ZM263.373 61.8434C263.069 61.8434 262.814 61.7404 262.608 61.5343C262.402 61.3282 262.298 61.0731 262.298 60.7689C262.298 60.4646 262.402 60.2095 262.608 60.0034C262.814 59.7973 263.069 59.6943 263.373 59.6943C263.667 59.6943 263.918 59.7973 264.124 60.0034C264.33 60.2095 264.433 60.4646 264.433 60.7689C264.433 61.0731 264.33 61.3282 264.124 61.5343C263.918 61.7404 263.667 61.8434 263.373 61.8434ZM264.197 62.918V71.0291H262.519V62.918H264.197ZM273.835 66.7748C273.835 67.079 273.815 67.3538 273.776 67.5992H267.578C267.627 68.2469 267.868 68.767 268.3 69.1595C268.731 69.5521 269.261 69.7484 269.889 69.7484C270.792 69.7484 271.43 69.3705 271.803 68.6149H273.614C273.368 69.3607 272.922 69.9741 272.274 70.455C271.636 70.926 270.841 71.1615 269.889 71.1615C269.114 71.1615 268.417 70.9898 267.799 70.6463C267.191 70.293 266.71 69.8023 266.357 69.1743C266.013 68.5364 265.841 67.8004 265.841 66.9662C265.841 66.132 266.008 65.4009 266.342 64.7728C266.685 64.1349 267.161 63.6443 267.77 63.3008C268.388 62.9573 269.095 62.7856 269.889 62.7856C270.655 62.7856 271.337 62.9524 271.936 63.2861C272.534 63.6197 273 64.0908 273.334 64.6992C273.668 65.2979 273.835 65.9897 273.835 66.7748ZM272.083 66.2449C272.073 65.6266 271.852 65.131 271.42 64.7581C270.989 64.3852 270.454 64.1987 269.816 64.1987C269.237 64.1987 268.741 64.3852 268.329 64.7581C267.917 65.1212 267.672 65.6168 267.593 66.2449H272.083ZM286.379 62.918L283.862 71.0291H282.096L280.462 65.0378L278.828 71.0291H277.061L274.529 62.918H276.237L277.93 69.4392L279.652 62.918H281.404L283.052 69.4098L284.73 62.918H286.379ZM126.652 84.7856C127.29 84.7856 127.859 84.918 128.359 85.183C128.87 85.448 129.267 85.8405 129.552 86.3607C129.836 86.8808 129.979 87.5089 129.979 88.2449V93.0291H128.315V88.4951C128.315 87.7689 128.134 87.2144 127.77 86.8317C127.407 86.4392 126.912 86.2429 126.284 86.2429C125.656 86.2429 125.155 86.4392 124.782 86.8317C124.419 87.2144 124.238 87.7689 124.238 88.4951V93.0291H122.559V84.918H124.238V85.8454C124.512 85.5118 124.861 85.2517 125.283 85.0653C125.714 84.8788 126.171 84.7856 126.652 84.7856ZM139.553 88.7748C139.553 89.079 139.533 89.3538 139.494 89.5992H133.297C133.346 90.2469 133.586 90.767 134.018 91.1595C134.45 91.5521 134.98 91.7484 135.608 91.7484C136.511 91.7484 137.149 91.3705 137.522 90.6149H139.332C139.087 91.3607 138.64 91.9741 137.993 92.455C137.355 92.926 136.56 93.1615 135.608 93.1615C134.833 93.1615 134.136 92.9898 133.518 92.6463C132.909 92.293 132.428 91.8023 132.075 91.1743C131.731 90.5364 131.56 89.8004 131.56 88.9662C131.56 88.132 131.727 87.4009 132.06 86.7728C132.404 86.1349 132.88 85.6443 133.488 85.3008C134.106 84.9573 134.813 84.7856 135.608 84.7856C136.373 84.7856 137.055 84.9524 137.654 85.2861C138.253 85.6197 138.719 86.0908 139.052 86.6992C139.386 87.2979 139.553 87.9897 139.553 88.7748ZM137.801 88.2449C137.791 87.6266 137.571 87.131 137.139 86.7581C136.707 86.3852 136.172 86.1987 135.534 86.1987C134.955 86.1987 134.46 86.3852 134.047 86.7581C133.635 87.1212 133.39 87.6168 133.311 88.2449H137.801ZM144.678 88.922L147.299 93.0291H145.4L143.648 90.2763L141.999 93.0291H140.248L142.868 89.0398L140.248 84.918H142.147L143.898 87.6708L145.547 84.918H147.299L144.678 88.922ZM150.508 86.2871V90.7768C150.508 91.081 150.577 91.3018 150.714 91.4392C150.861 91.5668 151.107 91.6306 151.45 91.6306H152.481V93.0291H151.156C150.4 93.0291 149.821 92.8524 149.419 92.4991C149.016 92.1458 148.815 91.5717 148.815 90.7768V86.2871H147.858V84.918H148.815V82.9013H150.508V84.918H152.481V86.2871H150.508ZM168.744 84.918L166.227 93.0291H164.461L162.827 87.0378L161.193 93.0291H159.426L156.894 84.918H158.602L160.295 91.4392L162.017 84.918H163.769L165.418 91.4098L167.096 84.918H168.744ZM177.432 88.7748C177.432 89.079 177.413 89.3538 177.374 89.5992H171.176C171.225 90.2469 171.466 90.767 171.897 91.1595C172.329 91.5521 172.859 91.7484 173.487 91.7484C174.39 91.7484 175.028 91.3705 175.401 90.6149H177.212C176.966 91.3607 176.52 91.9741 175.872 92.455C175.234 92.926 174.439 93.1615 173.487 93.1615C172.712 93.1615 172.015 92.9898 171.397 92.6463C170.789 92.293 170.308 91.8023 169.954 91.1743C169.611 90.5364 169.439 89.8004 169.439 88.9662C169.439 88.132 169.606 87.4009 169.94 86.7728C170.283 86.1349 170.759 85.6443 171.368 85.3008C171.986 84.9573 172.692 84.7856 173.487 84.7856C174.253 84.7856 174.935 84.9524 175.533 85.2861C176.132 85.6197 176.598 86.0908 176.932 86.6992C177.266 87.2979 177.432 87.9897 177.432 88.7748ZM175.681 88.2449C175.671 87.6266 175.45 87.131 175.018 86.7581C174.586 86.3852 174.052 86.1987 173.414 86.1987C172.835 86.1987 172.339 86.3852 171.927 86.7581C171.515 87.1212 171.269 87.6168 171.191 88.2449H175.681ZM186.518 88.7748C186.518 89.079 186.498 89.3538 186.459 89.5992H180.261C180.311 90.2469 180.551 90.767 180.983 91.1595C181.415 91.5521 181.945 91.7484 182.573 91.7484C183.475 91.7484 184.113 91.3705 184.486 90.6149H186.297C186.052 91.3607 185.605 91.9741 184.957 92.455C184.319 92.926 183.525 93.1615 182.573 93.1615C181.797 93.1615 181.101 92.9898 180.482 92.6463C179.874 92.293 179.393 91.8023 179.04 91.1743C178.696 90.5364 178.524 89.8004 178.524 88.9662C178.524 88.132 178.691 87.4009 179.025 86.7728C179.368 86.1349 179.844 85.6443 180.453 85.3008C181.071 84.9573 181.778 84.7856 182.573 84.7856C183.338 84.7856 184.02 84.9524 184.619 85.2861C185.217 85.6197 185.684 86.0908 186.017 86.6992C186.351 87.2979 186.518 87.9897 186.518 88.7748ZM184.766 88.2449C184.756 87.6266 184.535 87.131 184.104 86.7581C183.672 86.3852 183.137 86.1987 182.499 86.1987C181.92 86.1987 181.424 86.3852 181.012 86.7581C180.6 87.1212 180.355 87.6168 180.276 88.2449H184.766ZM191.378 88.9809L195.117 93.0291H192.85L189.847 89.5403V93.0291H188.169V82.1359H189.847V88.4657L192.791 84.918H195.117L191.378 88.9809Z" fill="#4F4F4F"/>
</g>
<defs>
<filter id="filter0_bd_22_13789" x="-0.514656" y="-5.51466" width="332.132" height="136.367" filterUnits="userSpaceOnUse" color-interpolation-filters="sRGB">
<feFlood flood-opacity="0" result="BackgroundImageFix"/>
<feGaussianBlur in="BackgroundImageFix" stdDeviation="5.25733"/>
<feComposite in2="SourceAlpha" operator="in" result="effect1_backgroundBlur_22_13789"/>
<feColorMatrix in="SourceAlpha" type="matrix" values="0 0 0 0 0 0 0 0 0 0 0 0 0 0 0 0 0 0 127 0" result="hardAlpha"/>
<feOffset dy="5"/>
<feGaussianBlur stdDeviation="5"/>
<feComposite in2="hardAlpha" operator="out"/>
<feColorMatrix type="matrix" values="0 0 0 0 0.2 0 0 0 0 0.189167 0 0 0 0 0.189167 0 0 0 0.25 0"/>
<feBlend mode="normal" in2="effect1_backgroundBlur_22_13789" result="effect2_dropShadow_22_13789"/>
<feBlend mode="normal" in="SourceGraphic" in2="effect2_dropShadow_22_13789" result="shape"/>
</filter>
</defs>
</svg>
