<svg width="53" height="54" viewBox="0 0 53 54" fill="none" xmlns="http://www.w3.org/2000/svg">
<path d="M14.2 7.52747C12.2392 7.52747 10.3588 8.30638 8.97228 9.69286C7.5858 11.0793 6.80688 12.9598 6.80688 14.9206V32.9927C6.80688 34.9534 7.5858 36.8339 8.97228 38.2204C10.3588 39.6069 12.2392 40.3858 14.2 40.3858H35.5579C37.5187 40.3858 39.3991 39.6069 40.7856 38.2204C42.1721 36.8339 42.951 34.9534 42.951 32.9927V14.9206C42.951 12.9598 42.1721 11.0793 40.7856 9.69286C39.3991 8.30638 37.5187 7.52747 35.5579 7.52747H14.2ZM19.9502 30.5151V17.3981C19.95 17.1004 20.0306 16.8082 20.1835 16.5528C20.3365 16.2974 20.5559 16.0883 20.8184 15.948C21.081 15.8076 21.3767 15.7412 21.674 15.7558C21.9714 15.7705 22.2591 15.8657 22.5066 16.0312L32.3542 22.5897C32.5799 22.7396 32.765 22.943 32.8931 23.1818C33.0211 23.4206 33.0881 23.6873 33.0881 23.9583C33.0881 24.2292 33.0211 24.4959 32.8931 24.7347C32.765 24.9735 32.5799 25.1769 32.3542 25.3268L22.5033 31.8853C22.2557 32.0501 21.9679 32.1446 21.6708 32.1586C21.3737 32.1727 21.0783 32.1058 20.8162 31.9652C20.5541 31.8245 20.3351 31.6153 20.1826 31.36C20.0301 31.1046 19.9498 30.8126 19.9502 30.5151ZM19.9502 46.9574C18.6748 46.9585 17.4166 46.662 16.2758 46.0916C15.135 45.5212 14.143 44.6926 13.3785 43.6716H37.2008C39.5973 43.6716 41.8957 42.7196 43.5903 41.025C45.2848 39.3304 46.2368 37.0321 46.2368 34.6356V14.0991C48.2313 15.5975 49.5227 17.983 49.5227 20.6708V34.6356C49.5227 37.9035 48.2245 41.0376 45.9137 43.3484C43.6029 45.6592 40.4688 46.9574 37.2008 46.9574H19.9502Z" fill="#FF9A62"/>
</svg>
