<svg width="54" height="44" viewBox="0 0 54 44" fill="none" xmlns="http://www.w3.org/2000/svg">
<g clip-path="url(#clip0_22_13743)">
<path d="M28.3879 18.8259L25.9236 21.0855C22.5885 24.1442 18.7933 22.0645 17.5693 20.7329C15.3596 18.3162 15.5321 14.5761 17.9308 12.3732L24.6503 6.21643H24.1082C19.3601 6.21643 14.7928 8.10291 11.4331 11.4608L3.53064 11.4854C2.08488 11.4854 0.901978 12.6683 0.901978 14.1142V27.2497C0.901978 28.6956 2.08488 29.8834 3.45671 29.8834L12.846 29.8784L20.2802 36.604C22.5392 38.4428 25.8455 38.0926 27.6733 35.8432L29.1618 37.0967C30.4662 38.0914 32.3967 37.9598 33.4646 36.6554L36.0423 33.4825L36.4837 33.8522C37.6132 34.7564 39.2668 34.5922 40.1803 33.462L40.9669 32.4895C41.8771 31.3634 41.7045 29.7153 40.5808 28.8021L28.3879 18.8259ZM50.8466 11.4854L42.9606 11.4751C39.5943 8.1082 35.0286 6.22418 30.2691 6.22418L29.5626 6.21643C28.9055 6.21643 28.2795 6.47922 27.7866 6.92072L19.7134 14.2967C19.7051 14.3131 19.6969 14.3295 19.6969 14.3295C18.3169 15.6283 18.3497 17.6668 19.5162 18.9327C20.3069 19.7958 22.3913 20.7099 24.127 19.1588C24.127 19.1485 24.1476 19.1485 24.1579 19.1382L30.7295 13.1294C31.2635 12.6468 32.0948 12.6777 32.5876 13.2116C33.0805 13.7456 33.0394 14.5778 32.5055 15.071L30.3599 17.0331L42.3203 26.7409C43.3159 27.5622 43.9221 28.6717 44.1373 29.8628L50.8466 29.8653C52.2924 29.8653 53.4753 28.6832 53.4753 27.2365V14.1158C53.4753 12.6609 52.3006 11.4854 50.8466 11.4854Z" fill="#F2994A"/>
</g>
<defs>
<clipPath id="clip0_22_13743">
<rect width="52.5733" height="42.0862" fill="white" transform="translate(0.901978 0.955811)"/>
</clipPath>
</defs>
</svg>
