<svg width="166" height="169" viewBox="0 0 166 169" fill="none" xmlns="http://www.w3.org/2000/svg">
<g filter="url(#filter0_bd_22_13635)">
<rect x="10" y="5.35107" width="145.647" height="148.632" rx="16.8235" fill="white" fill-opacity="0.6" shape-rendering="crispEdges"/>
<g clip-path="url(#clip0_22_13635)">
<path d="M92.8638 30.4548V31.4548H93.8638H100.764C102.42 31.4548 103.904 32.9392 103.904 34.595V43.2553H61.7427V34.595C61.7427 32.9393 63.2278 31.4548 64.8828 31.4548H71.7831H72.7831V30.4548V26.3147C72.7831 24.6596 74.2676 23.1745 75.9232 23.1745H89.7237C91.3794 23.1745 92.8638 24.6596 92.8638 26.3147V30.4548ZM89.7237 31.4548H90.7237V30.4548V26.3147V25.3147H89.7237H75.9232H74.9232V26.3147V30.4548V31.4548H75.9232H89.7237ZM86.9636 53.5356C88.2787 53.5356 89.3436 52.4707 89.3436 51.1555V48.0154H103.904V59.4358C103.904 61.0908 102.419 62.576 100.764 62.576H64.8828C63.2278 62.576 61.7427 61.0915 61.7427 59.4358V48.0154H76.3033V51.1555C76.3033 52.4669 77.372 53.5356 78.6833 53.5356H86.9636Z" fill="#2F80ED" stroke="#2F80ED" stroke-width="2"/>
</g>
<path d="M50.7319 81.6067V78.3514H56.8136V96.7478H53.1797V81.6067H50.7319ZM60.4299 87.3098C60.4299 84.3994 60.9514 82.1198 61.9945 80.4711C63.0544 78.8224 64.804 77.9981 67.2434 77.9981C69.6828 77.9981 71.424 78.8224 72.4671 80.4711C73.527 82.1198 74.0569 84.3994 74.0569 87.3098C74.0569 90.2371 73.527 92.5335 72.4671 94.1991C71.424 95.8646 69.6828 96.6973 67.2434 96.6973C64.804 96.6973 63.0544 95.8646 61.9945 94.1991C60.9514 92.5335 60.4299 90.2371 60.4299 87.3098ZM70.5745 87.3098C70.5745 86.0649 70.4903 85.0219 70.3221 84.1807C70.1707 83.3227 69.851 82.6245 69.3632 82.0862C68.8921 81.5478 68.1855 81.2786 67.2434 81.2786C66.3013 81.2786 65.5863 81.5478 65.0984 82.0862C64.6274 82.6245 64.3077 83.3227 64.1395 84.1807C63.9881 85.0219 63.9124 86.0649 63.9124 87.3098C63.9124 88.5884 63.9881 89.6651 64.1395 90.54C64.2909 91.3979 64.6105 92.0961 65.0984 92.6345C65.5863 93.156 66.3013 93.4168 67.2434 93.4168C68.1855 93.4168 68.9005 93.156 69.3884 92.6345C69.8763 92.0961 70.1959 91.3979 70.3473 90.54C70.4988 89.6651 70.5745 88.5884 70.5745 87.3098ZM78.8386 96.9244C78.1993 96.9244 77.6694 96.731 77.2488 96.344C76.845 95.9403 76.6431 95.444 76.6431 94.8552C76.6431 94.2663 76.845 93.7785 77.2488 93.3915C77.6694 92.9878 78.1993 92.7859 78.8386 92.7859C79.461 92.7859 79.9742 92.9878 80.3779 93.3915C80.7817 93.7785 80.9836 94.2663 80.9836 94.8552C80.9836 95.444 80.7817 95.9403 80.3779 96.344C79.9742 96.731 79.461 96.9244 78.8386 96.9244ZM95.9169 81.4048H87.7407V85.72C88.094 85.2826 88.5987 84.9293 89.2548 84.6602C89.9109 84.3742 90.6091 84.2312 91.3493 84.2312C92.6952 84.2312 93.7971 84.5256 94.6551 85.1144C95.5131 85.7032 96.1356 86.4603 96.5225 87.3856C96.9095 88.294 97.1029 89.2698 97.1029 90.3128C97.1029 92.2475 96.5478 93.8037 95.4374 94.9813C94.3439 96.159 92.7793 96.7478 90.7437 96.7478C88.8258 96.7478 87.2949 96.2683 86.1509 95.3094C85.0069 94.3505 84.3592 93.0971 84.2078 91.5494H87.6397C87.7912 92.2223 88.1276 92.7606 88.6491 93.1644C89.1875 93.5682 89.8688 93.7701 90.6932 93.7701C91.6858 93.7701 92.4344 93.4588 92.9391 92.8364C93.4438 92.2139 93.6962 91.3895 93.6962 90.3633C93.6962 89.3202 93.4354 88.5295 92.9139 87.9912C92.4092 87.436 91.6605 87.1584 90.668 87.1584C89.9614 87.1584 89.3726 87.3351 88.9015 87.6884C88.4304 88.0417 88.094 88.5127 87.8921 89.1015H84.5106V78.3009H95.9169V81.4048ZM110.264 96.7478L103.855 88.8997V96.7478H100.322V79.1337H103.855V87.0323L110.264 79.1337H114.529L107.261 87.865L114.731 96.7478H110.264Z" fill="#4F4F4F"/>
<path d="M34.4613 117.467V125.896C34.4613 126.939 34.1416 127.763 33.5023 128.369C32.8743 128.974 32.0443 129.277 31.0125 129.277C29.9806 129.277 29.1451 128.974 28.5058 128.369C27.8777 127.763 27.5637 126.939 27.5637 125.896H29.4984C29.5096 126.412 29.6385 126.821 29.8853 127.124C30.1433 127.427 30.519 127.578 31.0125 127.578C31.506 127.578 31.8817 127.427 32.1396 127.124C32.3976 126.81 32.5266 126.4 32.5266 125.896V117.467H34.4613ZM41.6862 129.311C40.8113 129.311 40.0206 129.115 39.314 128.722C38.6075 128.318 38.0523 127.758 37.6485 127.04C37.2448 126.311 37.0429 125.47 37.0429 124.516C37.0429 123.574 37.2504 122.739 37.6653 122.01C38.0803 121.281 38.6467 120.72 39.3645 120.327C40.0823 119.935 40.8842 119.738 41.7703 119.738C42.6563 119.738 43.4582 119.935 44.176 120.327C44.8938 120.72 45.4602 121.281 45.8752 122.01C46.2902 122.739 46.4977 123.574 46.4977 124.516C46.4977 125.458 46.2846 126.294 45.8584 127.023C45.4322 127.752 44.849 128.318 44.1087 128.722C43.3797 129.115 42.5722 129.311 41.6862 129.311ZM41.6862 127.645C42.1796 127.645 42.6395 127.528 43.0657 127.292C43.5031 127.057 43.8564 126.703 44.1256 126.232C44.3947 125.761 44.5293 125.189 44.5293 124.516C44.5293 123.843 44.4003 123.277 44.1424 122.817C43.8844 122.346 43.5423 121.993 43.1161 121.757C42.69 121.522 42.2301 121.404 41.7366 121.404C41.2431 121.404 40.7833 121.522 40.3571 121.757C39.9421 121.993 39.6113 122.346 39.3645 122.817C39.1178 123.277 38.9944 123.843 38.9944 124.516C38.9944 125.514 39.2468 126.288 39.7515 126.838C40.2674 127.376 40.9123 127.645 41.6862 127.645ZM50.3956 121.269C50.7208 120.821 51.1638 120.456 51.7246 120.176C52.2966 119.884 52.9303 119.738 53.6257 119.738C54.4444 119.738 55.1847 119.935 55.8464 120.327C56.5081 120.72 57.0296 121.281 57.411 122.01C57.7923 122.727 57.983 123.552 57.983 124.483C57.983 125.414 57.7923 126.249 57.411 126.989C57.0296 127.718 56.5025 128.29 55.8296 128.705C55.1678 129.109 54.4332 129.311 53.6257 129.311C52.9079 129.311 52.2686 129.171 51.7078 128.89C51.1582 128.61 50.7208 128.251 50.3956 127.814V129.16H48.4777V116.71H50.3956V121.269ZM56.0314 124.483C56.0314 123.843 55.8968 123.294 55.6277 122.834C55.3697 122.363 55.022 122.01 54.5846 121.774C54.1584 121.527 53.6986 121.404 53.2051 121.404C52.7228 121.404 52.263 121.527 51.8256 121.774C51.3994 122.021 51.0517 122.38 50.7825 122.851C50.5246 123.322 50.3956 123.877 50.3956 124.516C50.3956 125.156 50.5246 125.716 50.7825 126.199C51.0517 126.67 51.3994 127.029 51.8256 127.275C52.263 127.522 52.7228 127.645 53.2051 127.645C53.6986 127.645 54.1584 127.522 54.5846 127.275C55.022 127.017 55.3697 126.647 55.6277 126.165C55.8968 125.683 56.0314 125.122 56.0314 124.483ZM74.4952 117.467L70.1042 129.16H67.8836L63.4758 117.467H65.5283L68.9939 127.191L72.4764 117.467H74.4952ZM80.204 129.311C79.3291 129.311 78.5384 129.115 77.8319 128.722C77.1253 128.318 76.5701 127.758 76.1663 127.04C75.7626 126.311 75.5607 125.47 75.5607 124.516C75.5607 123.574 75.7682 122.739 76.1832 122.01C76.5981 121.281 77.1645 120.72 77.8823 120.327C78.6001 119.935 79.4021 119.738 80.2881 119.738C81.1741 119.738 81.976 119.935 82.6938 120.327C83.4116 120.72 83.978 121.281 84.393 122.01C84.808 122.739 85.0155 123.574 85.0155 124.516C85.0155 125.458 84.8024 126.294 84.3762 127.023C83.95 127.752 83.3668 128.318 82.6265 128.722C81.8975 129.115 81.09 129.311 80.204 129.311ZM80.204 127.645C80.6975 127.645 81.1573 127.528 81.5835 127.292C82.0209 127.057 82.3742 126.703 82.6434 126.232C82.9125 125.761 83.0471 125.189 83.0471 124.516C83.0471 123.843 82.9182 123.277 82.6602 122.817C82.4022 122.346 82.0602 121.993 81.634 121.757C81.2078 121.522 80.7479 121.404 80.2544 121.404C79.761 121.404 79.3011 121.522 78.8749 121.757C78.4599 121.993 78.1291 122.346 77.8823 122.817C77.6356 123.277 77.5122 123.843 77.5122 124.516C77.5122 125.514 77.7646 126.288 78.2693 126.838C78.7852 127.376 79.4301 127.645 80.204 127.645ZM86.3562 124.516C86.3562 123.563 86.5469 122.727 86.9282 122.01C87.3208 121.281 87.8591 120.72 88.5433 120.327C89.2274 119.935 90.0125 119.738 90.8986 119.738C92.0201 119.738 92.9454 120.008 93.6744 120.546C94.4147 121.073 94.9138 121.83 95.1717 122.817H93.1024C92.9342 122.357 92.665 121.998 92.2949 121.74C91.9248 121.482 91.4593 121.353 90.8986 121.353C90.1135 121.353 89.4854 121.634 89.0143 122.195C88.5545 122.744 88.3246 123.518 88.3246 124.516C88.3246 125.514 88.5545 126.294 89.0143 126.855C89.4854 127.415 90.1135 127.696 90.8986 127.696C92.0089 127.696 92.7435 127.208 93.1024 126.232H95.1717C94.9025 127.174 94.3978 127.926 93.6576 128.487C92.9174 129.036 91.9977 129.311 90.8986 129.311C90.0125 129.311 89.2274 129.115 88.5433 128.722C87.8591 128.318 87.3208 127.758 86.9282 127.04C86.5469 126.311 86.3562 125.47 86.3562 124.516ZM96.5278 124.483C96.5278 123.552 96.7185 122.727 97.0998 122.01C97.4924 121.292 98.0195 120.737 98.6812 120.344C99.3542 119.94 100.094 119.738 100.902 119.738C101.631 119.738 102.265 119.884 102.803 120.176C103.353 120.456 103.79 120.809 104.115 121.236V119.89H106.05V129.16H104.115V127.78C103.79 128.217 103.347 128.582 102.786 128.874C102.225 129.165 101.586 129.311 100.868 129.311C100.072 129.311 99.343 129.109 98.6812 128.705C98.0195 128.29 97.4924 127.718 97.0998 126.989C96.7185 126.249 96.5278 125.414 96.5278 124.483ZM104.115 124.516C104.115 123.877 103.981 123.322 103.711 122.851C103.453 122.38 103.111 122.021 102.685 121.774C102.259 121.527 101.799 121.404 101.306 121.404C100.812 121.404 100.352 121.527 99.9262 121.774C99.5 122.01 99.1523 122.363 98.8831 122.834C98.6252 123.294 98.4962 123.843 98.4962 124.483C98.4962 125.122 98.6252 125.683 98.8831 126.165C99.1523 126.647 99.5 127.017 99.9262 127.275C100.364 127.522 100.823 127.645 101.306 127.645C101.799 127.645 102.259 127.522 102.685 127.275C103.111 127.029 103.453 126.67 103.711 126.199C103.981 125.716 104.115 125.156 104.115 124.516ZM113.33 119.738C114.059 119.738 114.71 119.89 115.282 120.193C115.865 120.495 116.319 120.944 116.644 121.539C116.969 122.133 117.132 122.851 117.132 123.692V129.16H115.231V123.978C115.231 123.148 115.024 122.514 114.609 122.077C114.194 121.628 113.627 121.404 112.909 121.404C112.192 121.404 111.62 121.628 111.193 122.077C110.778 122.514 110.571 123.148 110.571 123.978V129.16H108.653V119.89H110.571V120.95C110.885 120.568 111.283 120.271 111.765 120.058C112.259 119.845 112.78 119.738 113.33 119.738ZM119.023 124.516C119.023 123.563 119.214 122.727 119.595 122.01C119.988 121.281 120.526 120.72 121.21 120.327C121.894 119.935 122.68 119.738 123.566 119.738C124.687 119.738 125.612 120.008 126.341 120.546C127.082 121.073 127.581 121.83 127.839 122.817H125.769C125.601 122.357 125.332 121.998 124.962 121.74C124.592 121.482 124.126 121.353 123.566 121.353C122.781 121.353 122.152 121.634 121.681 122.195C121.222 122.744 120.992 123.518 120.992 124.516C120.992 125.514 121.222 126.294 121.681 126.855C122.152 127.415 122.781 127.696 123.566 127.696C124.676 127.696 125.411 127.208 125.769 126.232H127.839C127.57 127.174 127.065 127.926 126.325 128.487C125.584 129.036 124.665 129.311 123.566 129.311C122.68 129.311 121.894 129.115 121.21 128.722C120.526 128.318 119.988 127.758 119.595 127.04C119.214 126.311 119.023 125.47 119.023 124.516ZM138.179 119.89L132.492 133.517H130.507L132.391 129.008L128.741 119.89H130.877L133.485 126.956L136.193 119.89H138.179Z" fill="#333333"/>
</g>
<defs>
<filter id="filter0_bd_22_13635" x="-0.514656" y="-5.16358" width="166.676" height="174.147" filterUnits="userSpaceOnUse" color-interpolation-filters="sRGB">
<feFlood flood-opacity="0" result="BackgroundImageFix"/>
<feGaussianBlur in="BackgroundImageFix" stdDeviation="5.25733"/>
<feComposite in2="SourceAlpha" operator="in" result="effect1_backgroundBlur_22_13635"/>
<feColorMatrix in="SourceAlpha" type="matrix" values="0 0 0 0 0 0 0 0 0 0 0 0 0 0 0 0 0 0 127 0" result="hardAlpha"/>
<feOffset dy="5"/>
<feGaussianBlur stdDeviation="5"/>
<feComposite in2="hardAlpha" operator="out"/>
<feColorMatrix type="matrix" values="0 0 0 0 0.2 0 0 0 0 0.189167 0 0 0 0 0.189167 0 0 0 0.25 0"/>
<feBlend mode="normal" in2="effect1_backgroundBlur_22_13635" result="effect2_dropShadow_22_13635"/>
<feBlend mode="normal" in="SourceGraphic" in2="effect2_dropShadow_22_13635" result="shape"/>
</filter>
<clipPath id="clip0_22_13635">
<rect width="44.1616" height="44.1616" fill="white" transform="translate(60.7427 22.1745)"/>
</clipPath>
</defs>
</svg>
