<svg width="177" height="160" viewBox="0 0 177 160" fill="none" xmlns="http://www.w3.org/2000/svg">
<g filter="url(#filter0_bd_22_13640)">
<rect x="10" y="5.35107" width="156.647" height="139.22" rx="16.8235" fill="#FFFDFD" fill-opacity="0.6" shape-rendering="crispEdges"/>
<path d="M79.7088 47.2709L76.8208 47.2599C76.8205 47.2599 76.8202 47.2599 76.8199 47.2599C76.5577 47.2586 76.2995 47.1946 76.0671 47.0731C75.8344 46.9516 75.6342 46.776 75.4834 46.5611L74.1926 47.4675L75.4834 46.5611C75.3325 46.3463 75.2353 46.0984 75.1999 45.8382C75.1646 45.5782 75.1921 45.3134 75.2801 45.0662C75.2801 45.0661 75.2801 45.066 75.2802 45.0659L81.3909 27.9131L81.4012 27.8842C81.4532 27.7554 81.5413 27.6441 81.6552 27.5638C81.7772 27.4779 81.9228 27.4318 82.072 27.4319H82.0728H93.9467H93.9468C94.0613 27.4319 94.1742 27.4591 94.2762 27.5113C94.3781 27.5634 94.4662 27.6391 94.5332 27.732C94.6002 27.8249 94.6441 27.9324 94.6614 28.0456C94.6787 28.1587 94.6689 28.2742 94.6328 28.3827C94.6328 28.3828 94.6328 28.3829 94.6328 28.383C94.6327 28.383 94.6327 28.3831 94.6327 28.3832L91.9611 36.3962L91.2689 38.4723H93.4573H100.744C101.379 38.4723 101.707 39.2388 101.262 39.6985C101.262 39.6986 101.262 39.6987 101.262 39.6988L80.9088 60.7047L80.9087 60.7048C80.0786 61.5617 78.6437 60.7899 78.905 59.6225C78.905 59.6224 78.905 59.6223 78.905 59.6223L81.2418 49.193L81.6708 47.2784L79.7088 47.2709Z" fill="#F2994A" stroke="#F2F2F2" stroke-width="3.1544"/>
<path d="M37.9395 82.0555V93.7478H36.0216V82.0555H37.9395ZM42.7791 86.0427V91.1738C42.7791 91.5215 42.8576 91.7739 43.0147 91.9309C43.1829 92.0767 43.4633 92.1496 43.8558 92.1496H45.0335V93.7478H43.5194C42.6558 93.7478 41.994 93.5459 41.5342 93.1422C41.0743 92.7384 40.8444 92.0823 40.8444 91.1738V86.0427H39.7509V84.4781H40.8444V82.1733H42.7791V84.4781H45.0335V86.0427H42.7791ZM55.3603 93.8992C54.4855 93.8992 53.6948 93.7029 52.9882 93.3104C52.2816 92.9066 51.7264 92.3458 51.3227 91.628C50.9189 90.899 50.717 90.0579 50.717 89.1045C50.717 88.1624 50.9245 87.3269 51.3395 86.5978C51.7545 85.8688 52.3209 85.308 53.0387 84.9155C53.7565 84.5229 54.5584 84.3267 55.4444 84.3267C56.3305 84.3267 57.1324 84.5229 57.8502 84.9155C58.568 85.308 59.1344 85.8688 59.5493 86.5978C59.9643 87.3269 60.1718 88.1624 60.1718 89.1045C60.1718 90.0466 59.9587 90.8822 59.5325 91.6112C59.1063 92.3402 58.5231 92.9066 57.7829 93.3104C57.0539 93.7029 56.2463 93.8992 55.3603 93.8992ZM55.3603 92.2337C55.8538 92.2337 56.3136 92.1159 56.7398 91.8804C57.1772 91.6449 57.5305 91.2916 57.7997 90.8205C58.0689 90.3495 58.2035 89.7775 58.2035 89.1045C58.2035 88.4316 58.0745 87.8652 57.8165 87.4054C57.5586 86.9343 57.2165 86.581 56.7903 86.3455C56.3641 86.11 55.9043 85.9922 55.4108 85.9922C54.9173 85.9922 54.4574 86.11 54.0313 86.3455C53.6163 86.581 53.2854 86.9343 53.0387 87.4054C52.7919 87.8652 52.6686 88.4316 52.6686 89.1045C52.6686 90.1027 52.9209 90.8766 53.4256 91.4262C53.9415 91.9645 54.5864 92.2337 55.3603 92.2337ZM66.8288 84.3267C67.5578 84.3267 68.2083 84.4781 68.7803 84.7809C69.3635 85.0837 69.8177 85.5324 70.143 86.1268C70.4682 86.7212 70.6309 87.439 70.6309 88.2802V93.7478H68.7298V88.5662C68.7298 87.7362 68.5223 87.1025 68.1074 86.6651C67.6924 86.2165 67.126 85.9922 66.4082 85.9922C65.6904 85.9922 65.1184 86.2165 64.6922 86.6651C64.2772 87.1025 64.0697 87.7362 64.0697 88.5662V93.7478H62.1518V84.4781H64.0697V85.538C64.3838 85.1566 64.7819 84.8594 65.2642 84.6463C65.7577 84.4332 66.2792 84.3267 66.8288 84.3267ZM75.0792 81.2984V93.7478H73.1614V81.2984H75.0792ZM86.0258 84.4781L80.3394 98.1051H78.3543L80.2385 93.5964L76.5878 84.4781H78.7244L81.332 91.5439L84.0406 84.4781H86.0258ZM94.249 86.0427V91.1738C94.249 91.5215 94.3275 91.7739 94.4846 91.9309C94.6528 92.0767 94.9332 92.1496 95.3257 92.1496H96.5034V93.7478H94.9893C94.1257 93.7478 93.4639 93.5459 93.0041 93.1422C92.5442 92.7384 92.3143 92.0823 92.3143 91.1738V86.0427H91.2208V84.4781H92.3143V82.1733H94.249V84.4781H96.5034V86.0427H94.249ZM97.7158 89.0709C97.7158 88.14 97.9065 87.3156 98.2878 86.5978C98.6804 85.88 99.2075 85.3249 99.8692 84.9323C100.542 84.5286 101.282 84.3267 102.09 84.3267C102.819 84.3267 103.453 84.4725 103.991 84.7641C104.541 85.0445 104.978 85.3978 105.303 85.824V84.4781H107.238V93.7478H105.303V92.3683C104.978 92.8057 104.535 93.1702 103.974 93.4618C103.413 93.7534 102.774 93.8992 102.056 93.8992C101.26 93.8992 100.531 93.6973 99.8692 93.2936C99.2075 92.8786 98.6804 92.3066 98.2878 91.5776C97.9065 90.8373 97.7158 90.0018 97.7158 89.0709ZM105.303 89.1045C105.303 88.4652 105.169 87.9101 104.899 87.439C104.641 86.968 104.299 86.6091 103.873 86.3623C103.447 86.1156 102.987 85.9922 102.494 85.9922C102 85.9922 101.54 86.1156 101.114 86.3623C100.688 86.5978 100.34 86.9511 100.071 87.4222C99.8132 87.882 99.6842 88.4316 99.6842 89.0709C99.6842 89.7102 99.8132 90.271 100.071 90.7532C100.34 91.2355 100.688 91.6056 101.114 91.8636C101.552 92.1103 102.011 92.2337 102.494 92.2337C102.987 92.2337 103.447 92.1103 103.873 91.8636C104.299 91.6168 104.641 91.2579 104.899 90.7869C105.169 90.3046 105.303 89.7438 105.303 89.1045ZM113.509 89.1214L117.782 93.7478H115.191L111.759 89.7606V93.7478H109.841V81.2984H111.759V88.5325L115.124 84.4781H117.782L113.509 89.1214ZM127.736 88.8858C127.736 89.2335 127.714 89.5475 127.669 89.8279H120.586C120.642 90.5682 120.917 91.1626 121.411 91.6112C121.904 92.0598 122.51 92.2842 123.228 92.2842C124.26 92.2842 124.989 91.8524 125.415 90.9888H127.484C127.204 91.8411 126.693 92.5421 125.953 93.0917C125.224 93.63 124.316 93.8992 123.228 93.8992C122.342 93.8992 121.545 93.7029 120.839 93.3104C120.143 92.9066 119.594 92.3458 119.19 91.628C118.798 90.899 118.601 90.0579 118.601 89.1045C118.601 88.1512 118.792 87.3156 119.173 86.5978C119.566 85.8688 120.11 85.308 120.805 84.9155C121.512 84.5229 122.319 84.3267 123.228 84.3267C124.102 84.3267 124.882 84.5173 125.566 84.8987C126.25 85.28 126.783 85.8183 127.164 86.5137C127.546 87.1979 127.736 87.9886 127.736 88.8858ZM125.734 88.2802C125.723 87.5736 125.471 87.0072 124.977 86.581C124.484 86.1548 123.873 85.9417 123.144 85.9417C122.482 85.9417 121.915 86.1548 121.444 86.581C120.973 86.996 120.693 87.5624 120.603 88.2802H125.734ZM133.073 93.8992C132.344 93.8992 131.687 93.7702 131.104 93.5123C130.532 93.2431 130.078 92.8842 129.742 92.4356C129.405 91.9757 129.226 91.4654 129.203 90.9046H131.188C131.222 91.2972 131.407 91.628 131.744 91.8972C132.091 92.1552 132.523 92.2842 133.039 92.2842C133.577 92.2842 133.992 92.1832 134.284 91.9813C134.587 91.7682 134.738 91.4991 134.738 91.1738C134.738 90.8261 134.57 90.5682 134.233 90.3999C133.908 90.2317 133.387 90.0466 132.669 89.8448C131.973 89.6541 131.407 89.469 130.97 89.2896C130.532 89.1101 130.151 88.8354 129.826 88.4652C129.512 88.0951 129.355 87.6072 129.355 87.0016C129.355 86.5081 129.5 86.0595 129.792 85.6557C130.084 85.2407 130.499 84.9155 131.037 84.68C131.586 84.4444 132.215 84.3267 132.921 84.3267C133.975 84.3267 134.822 84.5958 135.461 85.1342C136.112 85.6613 136.46 86.3847 136.505 87.3044H134.587C134.553 86.8894 134.385 86.5586 134.082 86.3118C133.779 86.0651 133.37 85.9417 132.854 85.9417C132.349 85.9417 131.962 86.0371 131.693 86.2277C131.424 86.4184 131.289 86.6707 131.289 86.9848C131.289 87.2315 131.379 87.439 131.558 87.6072C131.738 87.7755 131.957 87.9101 132.215 88.011C132.473 88.1007 132.854 88.2185 133.359 88.3643C134.031 88.5437 134.581 88.7288 135.007 88.9195C135.445 89.0989 135.82 89.3681 136.134 89.727C136.448 90.0859 136.611 90.5626 136.622 91.157C136.622 91.6841 136.476 92.1552 136.185 92.5702C135.893 92.9851 135.478 93.3104 134.94 93.5459C134.413 93.7814 133.79 93.8992 133.073 93.8992ZM27.6945 115.071C27.6945 114.14 27.8851 113.316 28.2665 112.598C28.659 111.88 29.1861 111.325 29.8479 110.932C30.5208 110.529 31.261 110.327 32.0686 110.327C32.7976 110.327 33.4313 110.472 33.9696 110.764C34.5192 111.044 34.9566 111.398 35.2818 111.824V110.478H37.2165V119.748H35.2818V118.368C34.9566 118.806 34.5136 119.17 33.9528 119.462C33.392 119.753 32.7527 119.899 32.0349 119.899C31.2386 119.899 30.5096 119.697 29.8479 119.294C29.1861 118.879 28.659 118.307 28.2665 117.578C27.8851 116.837 27.6945 116.002 27.6945 115.071ZM35.2818 115.105C35.2818 114.465 35.1473 113.91 34.8781 113.439C34.6201 112.968 34.278 112.609 33.8518 112.362C33.4257 112.116 32.9658 111.992 32.4723 111.992C31.9788 111.992 31.519 112.116 31.0928 112.362C30.6666 112.598 30.3189 112.951 30.0497 113.422C29.7918 113.882 29.6628 114.432 29.6628 115.071C29.6628 115.71 29.7918 116.271 30.0497 116.753C30.3189 117.236 30.6666 117.606 31.0928 117.864C31.5302 118.11 31.9901 118.234 32.4723 118.234C32.9658 118.234 33.4257 118.11 33.8518 117.864C34.278 117.617 34.6201 117.258 34.8781 116.787C35.1473 116.305 35.2818 115.744 35.2818 115.105ZM48.1602 112.043H46.4442V119.748H44.5095V112.043H43.416V110.478H44.5095V109.822C44.5095 108.756 44.7899 107.983 45.3507 107.5C45.9227 107.007 46.8143 106.76 48.0256 106.76V108.358C47.4424 108.358 47.033 108.47 46.7975 108.695C46.562 108.908 46.4442 109.284 46.4442 109.822V110.478H48.1602V112.043ZM58.4398 114.886C58.4398 115.234 58.4174 115.548 58.3726 115.828H51.2899C51.346 116.568 51.6207 117.163 52.1142 117.611C52.6077 118.06 53.2134 118.284 53.9312 118.284C54.963 118.284 55.692 117.852 56.1182 116.989H58.1875C57.9071 117.841 57.3968 118.542 56.6566 119.092C55.9275 119.63 55.0191 119.899 53.9312 119.899C53.0451 119.899 52.2488 119.703 51.5422 119.31C50.8469 118.907 50.2973 118.346 49.8935 117.628C49.501 116.899 49.3047 116.058 49.3047 115.105C49.3047 114.151 49.4954 113.316 49.8767 112.598C50.2693 111.869 50.8132 111.308 51.5086 110.915C52.2152 110.523 53.0227 110.327 53.9312 110.327C54.806 110.327 55.5855 110.517 56.2696 110.899C56.9538 111.28 57.4865 111.818 57.8678 112.514C58.2492 113.198 58.4398 113.989 58.4398 114.886ZM56.4379 114.28C56.4266 113.574 56.1743 113.007 55.6808 112.581C55.1873 112.155 54.5761 111.942 53.847 111.942C53.1853 111.942 52.6189 112.155 52.1479 112.581C51.6768 112.996 51.3964 113.562 51.3067 114.28H56.4379ZM72.8607 110.478L69.9839 119.748H67.9651L66.0977 112.901L64.2303 119.748H62.2115L59.3178 110.478H61.2693L63.204 117.931L65.1724 110.478H67.1744L69.0586 117.897L70.9765 110.478H72.8607ZM82.1971 119.899C81.468 119.899 80.8119 119.77 80.2287 119.512C79.6567 119.243 79.2025 118.884 78.866 118.436C78.5295 117.976 78.3501 117.465 78.3277 116.905H80.3128C80.3465 117.297 80.5315 117.628 80.868 117.897C81.2157 118.155 81.6475 118.284 82.1634 118.284C82.7018 118.284 83.1167 118.183 83.4083 117.981C83.7112 117.768 83.8626 117.499 83.8626 117.174C83.8626 116.826 83.6943 116.568 83.3579 116.4C83.0326 116.232 82.5111 116.047 81.7933 115.845C81.0979 115.654 80.5315 115.469 80.0941 115.29C79.6567 115.11 79.2754 114.835 78.9501 114.465C78.6361 114.095 78.4791 113.607 78.4791 113.002C78.4791 112.508 78.6249 112.059 78.9165 111.656C79.2081 111.241 79.6231 110.915 80.1614 110.68C80.711 110.444 81.3391 110.327 82.0456 110.327C83.0999 110.327 83.9467 110.596 84.586 111.134C85.2365 111.661 85.5842 112.385 85.629 113.304H83.7112C83.6775 112.889 83.5093 112.559 83.2065 112.312C82.9036 112.065 82.4943 111.942 81.9784 111.942C81.4736 111.942 81.0867 112.037 80.8175 112.228C80.5484 112.418 80.4138 112.671 80.4138 112.985C80.4138 113.232 80.5035 113.439 80.6829 113.607C80.8624 113.775 81.0811 113.91 81.3391 114.011C81.597 114.101 81.9784 114.218 82.4831 114.364C83.156 114.544 83.7056 114.729 84.1318 114.919C84.5692 115.099 84.9449 115.368 85.2589 115.727C85.573 116.086 85.7356 116.563 85.7468 117.157C85.7468 117.684 85.601 118.155 85.3094 118.57C85.0178 118.985 84.6028 119.31 84.0645 119.546C83.5373 119.781 82.9149 119.899 82.1971 119.899ZM96.3991 114.886C96.3991 115.234 96.3766 115.548 96.3318 115.828H89.2491C89.3052 116.568 89.58 117.163 90.0735 117.611C90.5669 118.06 91.1726 118.284 91.8904 118.284C92.9222 118.284 93.6512 117.852 94.0774 116.989H96.1467C95.8663 117.841 95.356 118.542 94.6158 119.092C93.8868 119.63 92.9783 119.899 91.8904 119.899C91.0043 119.899 90.208 119.703 89.5015 119.31C88.8061 118.907 88.2565 118.346 87.8528 117.628C87.4602 116.899 87.2639 116.058 87.2639 115.105C87.2639 114.151 87.4546 113.316 87.8359 112.598C88.2285 111.869 88.7724 111.308 89.4678 110.915C90.1744 110.523 90.9819 110.327 91.8904 110.327C92.7652 110.327 93.5447 110.517 94.2288 110.899C94.913 111.28 95.4457 111.818 95.8271 112.514C96.2084 113.198 96.3991 113.989 96.3991 114.886ZM94.3971 114.28C94.3859 113.574 94.1335 113.007 93.64 112.581C93.1465 112.155 92.5353 111.942 91.8063 111.942C91.1445 111.942 90.5782 112.155 90.1071 112.581C89.636 112.996 89.3557 113.562 89.2659 114.28H94.3971ZM97.7313 115.105C97.7313 114.151 97.9219 113.316 98.3033 112.598C98.6958 111.869 99.2342 111.308 99.9183 110.915C100.602 110.523 101.388 110.327 102.274 110.327C103.395 110.327 104.32 110.596 105.049 111.134C105.79 111.661 106.289 112.418 106.547 113.405H104.477C104.309 112.946 104.04 112.587 103.67 112.329C103.3 112.071 102.834 111.942 102.274 111.942C101.489 111.942 100.86 112.222 100.389 112.783C99.9295 113.332 99.6996 114.106 99.6996 115.105C99.6996 116.103 99.9295 116.882 100.389 117.443C100.86 118.004 101.489 118.284 102.274 118.284C103.384 118.284 104.119 117.796 104.477 116.821H106.547C106.278 117.763 105.773 118.514 105.033 119.075C104.292 119.624 103.373 119.899 102.274 119.899C101.388 119.899 100.602 119.703 99.9183 119.31C99.2342 118.907 98.6958 118.346 98.3033 117.628C97.9219 116.899 97.7313 116.058 97.7313 115.105ZM112.563 119.899C111.688 119.899 110.897 119.703 110.191 119.31C109.484 118.907 108.929 118.346 108.525 117.628C108.122 116.899 107.92 116.058 107.92 115.105C107.92 114.162 108.127 113.327 108.542 112.598C108.957 111.869 109.524 111.308 110.241 110.915C110.959 110.523 111.761 110.327 112.647 110.327C113.533 110.327 114.335 110.523 115.053 110.915C115.771 111.308 116.337 111.869 116.752 112.598C117.167 113.327 117.374 114.162 117.374 115.105C117.374 116.047 117.161 116.882 116.735 117.611C116.309 118.34 115.726 118.907 114.986 119.31C114.257 119.703 113.449 119.899 112.563 119.899ZM112.563 118.234C113.056 118.234 113.516 118.116 113.943 117.88C114.38 117.645 114.733 117.292 115.002 116.821C115.272 116.349 115.406 115.777 115.406 115.105C115.406 114.432 115.277 113.865 115.019 113.405C114.761 112.934 114.419 112.581 113.993 112.345C113.567 112.11 113.107 111.992 112.613 111.992C112.12 111.992 111.66 112.11 111.234 112.345C110.819 112.581 110.488 112.934 110.241 113.405C109.995 113.865 109.871 114.432 109.871 115.105C109.871 116.103 110.124 116.877 110.628 117.426C111.144 117.965 111.789 118.234 112.563 118.234ZM124.031 110.327C124.76 110.327 125.411 110.478 125.983 110.781C126.566 111.084 127.02 111.532 127.346 112.127C127.671 112.721 127.834 113.439 127.834 114.28V119.748H125.933V114.566C125.933 113.736 125.725 113.103 125.31 112.665C124.895 112.217 124.329 111.992 123.611 111.992C122.893 111.992 122.321 112.217 121.895 112.665C121.48 113.103 121.272 113.736 121.272 114.566V119.748H119.355V110.478H121.272V111.538C121.586 111.157 121.985 110.859 122.467 110.646C122.96 110.433 123.482 110.327 124.031 110.327ZM129.725 115.071C129.725 114.14 129.915 113.316 130.297 112.598C130.689 111.88 131.216 111.325 131.878 110.932C132.551 110.529 133.297 110.327 134.116 110.327C134.721 110.327 135.316 110.461 135.899 110.73C136.493 110.988 136.964 111.336 137.312 111.773V107.298H139.247V119.748H137.312V118.351C136.998 118.8 136.561 119.17 136 119.462C135.45 119.753 134.817 119.899 134.099 119.899C133.291 119.899 132.551 119.697 131.878 119.294C131.216 118.879 130.689 118.307 130.297 117.578C129.915 116.837 129.725 116.002 129.725 115.071ZM137.312 115.105C137.312 114.465 137.178 113.91 136.908 113.439C136.65 112.968 136.308 112.609 135.882 112.362C135.456 112.116 134.996 111.992 134.503 111.992C134.009 111.992 133.549 112.116 133.123 112.362C132.697 112.598 132.349 112.951 132.08 113.422C131.822 113.882 131.693 114.432 131.693 115.071C131.693 115.71 131.822 116.271 132.08 116.753C132.349 117.236 132.697 117.606 133.123 117.864C133.56 118.11 134.02 118.234 134.503 118.234C134.996 118.234 135.456 118.11 135.882 117.864C136.308 117.617 136.65 117.258 136.908 116.787C137.178 116.305 137.312 115.744 137.312 115.105ZM145.215 119.899C144.486 119.899 143.83 119.77 143.246 119.512C142.674 119.243 142.22 118.884 141.884 118.436C141.547 117.976 141.368 117.465 141.345 116.905H143.33C143.364 117.297 143.549 117.628 143.886 117.897C144.233 118.155 144.665 118.284 145.181 118.284C145.719 118.284 146.134 118.183 146.426 117.981C146.729 117.768 146.88 117.499 146.88 117.174C146.88 116.826 146.712 116.568 146.375 116.4C146.05 116.232 145.529 116.047 144.811 115.845C144.116 115.654 143.549 115.469 143.112 115.29C142.674 115.11 142.293 114.835 141.968 114.465C141.654 114.095 141.497 113.607 141.497 113.002C141.497 112.508 141.642 112.059 141.934 111.656C142.226 111.241 142.641 110.915 143.179 110.68C143.729 110.444 144.357 110.327 145.063 110.327C146.118 110.327 146.964 110.596 147.604 111.134C148.254 111.661 148.602 112.385 148.647 113.304H146.729C146.695 112.889 146.527 112.559 146.224 112.312C145.921 112.065 145.512 111.942 144.996 111.942C144.491 111.942 144.104 112.037 143.835 112.228C143.566 112.418 143.431 112.671 143.431 112.985C143.431 113.232 143.521 113.439 143.701 113.607C143.88 113.775 144.099 113.91 144.357 114.011C144.615 114.101 144.996 114.218 145.501 114.364C146.174 114.544 146.723 114.729 147.149 114.919C147.587 115.099 147.963 115.368 148.277 115.727C148.591 116.086 148.753 116.563 148.764 117.157C148.764 117.684 148.619 118.155 148.327 118.57C148.035 118.985 147.62 119.31 147.082 119.546C146.555 119.781 145.932 119.899 145.215 119.899Z" fill="#333333"/>
</g>
<defs>
<filter id="filter0_bd_22_13640" x="-0.514656" y="-5.16358" width="177.676" height="164.735" filterUnits="userSpaceOnUse" color-interpolation-filters="sRGB">
<feFlood flood-opacity="0" result="BackgroundImageFix"/>
<feGaussianBlur in="BackgroundImageFix" stdDeviation="5.25733"/>
<feComposite in2="SourceAlpha" operator="in" result="effect1_backgroundBlur_22_13640"/>
<feColorMatrix in="SourceAlpha" type="matrix" values="0 0 0 0 0 0 0 0 0 0 0 0 0 0 0 0 0 0 127 0" result="hardAlpha"/>
<feOffset dy="5"/>
<feGaussianBlur stdDeviation="5"/>
<feComposite in2="hardAlpha" operator="out"/>
<feColorMatrix type="matrix" values="0 0 0 0 0.2 0 0 0 0 0.189167 0 0 0 0 0.189167 0 0 0 0.25 0"/>
<feBlend mode="normal" in2="effect1_backgroundBlur_22_13640" result="effect2_dropShadow_22_13640"/>
<feBlend mode="normal" in="SourceGraphic" in2="effect2_dropShadow_22_13640" result="shape"/>
</filter>
</defs>
</svg>
