<svg width="334" height="107" viewBox="0 0 334 107" fill="none" xmlns="http://www.w3.org/2000/svg">
<g filter="url(#filter0_bd_22_13839)">
<rect x="10.449" y="5.52856" width="313.102" height="86.2202" rx="16.8235" fill="#FFFDFD" fill-opacity="0.6" shape-rendering="crispEdges"/>
<path d="M68.1918 55.2101H72.5729V42.0668H79.1445L70.3823 31.114L61.6201 42.0668H68.1918V55.2101Z" fill="#FF9A62"/>
<path d="M87.9069 61.7819H52.858V46.448H48.4769V61.7819C48.4769 64.1981 50.4419 66.163 52.858 66.163H87.9069C90.3231 66.163 92.288 64.1981 92.288 61.7819V46.448H87.9069V61.7819Z" fill="#FF9A62"/>
<path d="M126.741 41.3761V50.2084C126.741 51.0916 126.958 51.7716 127.393 52.2482C127.828 52.7249 128.465 52.9632 129.307 52.9632C130.148 52.9632 130.793 52.7249 131.241 52.2482C131.69 51.7716 131.914 51.0916 131.914 50.2084V41.3761H135.51V50.1874C135.51 51.5052 135.23 52.6198 134.669 53.531C134.108 54.4423 133.351 55.1293 132.398 55.5919C131.459 56.0546 130.407 56.2859 129.244 56.2859C128.08 56.2859 127.035 56.0616 126.11 55.6129C125.199 55.1503 124.477 54.4633 123.944 53.5521C123.411 52.6268 123.145 51.5052 123.145 50.1874V41.3761H126.741ZM141.631 46.0656C141.982 45.5189 142.466 45.0773 143.082 44.7408C143.699 44.4043 144.421 44.2361 145.248 44.2361C146.216 44.2361 147.092 44.4814 147.877 44.9721C148.662 45.4628 149.279 46.1638 149.728 47.075C150.19 47.9863 150.422 49.0448 150.422 50.2505C150.422 51.4561 150.19 52.5216 149.728 53.4469C149.279 54.3582 148.662 55.0662 147.877 55.5709C147.092 56.0616 146.216 56.3069 145.248 56.3069C144.435 56.3069 143.713 56.1387 143.082 55.8022C142.466 55.4657 141.982 55.0311 141.631 54.4984V61.7325H138.035V44.4043H141.631V46.0656ZM146.763 50.2505C146.763 49.3532 146.51 48.6522 146.006 48.1475C145.515 47.6288 144.905 47.3694 144.176 47.3694C143.461 47.3694 142.851 47.6288 142.346 48.1475C141.856 48.6663 141.61 49.3742 141.61 50.2715C141.61 51.1687 141.856 51.8767 142.346 52.3955C142.851 52.9142 143.461 53.1735 144.176 53.1735C144.891 53.1735 145.501 52.9142 146.006 52.3955C146.51 51.8627 146.763 51.1477 146.763 50.2505ZM155.904 40.577V56.1387H152.308V40.577H155.904ZM163.852 56.3069C162.702 56.3069 161.665 56.0616 160.739 55.5709C159.828 55.0802 159.106 54.3792 158.573 53.4679C158.055 52.5567 157.795 51.4912 157.795 50.2715C157.795 49.0658 158.062 48.0073 158.594 47.0961C159.127 46.1708 159.856 45.4628 160.781 44.9721C161.707 44.4814 162.744 44.2361 163.894 44.2361C165.043 44.2361 166.081 44.4814 167.006 44.9721C167.931 45.4628 168.66 46.1708 169.193 47.0961C169.726 48.0073 169.992 49.0658 169.992 50.2715C169.992 51.4772 169.719 52.5427 169.172 53.4679C168.639 54.3792 167.903 55.0802 166.964 55.5709C166.039 56.0616 165.001 56.3069 163.852 56.3069ZM163.852 53.1946C164.539 53.1946 165.12 52.9422 165.597 52.4375C166.088 51.9328 166.333 51.2108 166.333 50.2715C166.333 49.3322 166.095 48.6102 165.618 48.1055C165.156 47.6008 164.581 47.3484 163.894 47.3484C163.193 47.3484 162.611 47.6008 162.148 48.1055C161.686 48.5962 161.454 49.3182 161.454 50.2715C161.454 51.2108 161.679 51.9328 162.127 52.4375C162.59 52.9422 163.165 53.1946 163.852 53.1946ZM171.185 50.2505C171.185 49.0448 171.409 47.9863 171.858 47.075C172.321 46.1638 172.944 45.4628 173.73 44.9721C174.515 44.4814 175.391 44.2361 176.358 44.2361C177.185 44.2361 177.907 44.4043 178.524 44.7408C179.155 45.0773 179.639 45.5189 179.975 46.0656V44.4043H183.571V56.1387H179.975V54.4774C179.625 55.0241 179.134 55.4657 178.503 55.8022C177.886 56.1387 177.164 56.3069 176.337 56.3069C175.384 56.3069 174.515 56.0616 173.73 55.5709C172.944 55.0662 172.321 54.3582 171.858 53.4469C171.409 52.5216 171.185 51.4561 171.185 50.2505ZM179.975 50.2715C179.975 49.3742 179.723 48.6663 179.218 48.1475C178.728 47.6288 178.125 47.3694 177.41 47.3694C176.695 47.3694 176.085 47.6288 175.58 48.1475C175.089 48.6522 174.844 49.3532 174.844 50.2505C174.844 51.1477 175.089 51.8627 175.58 52.3955C176.085 52.9142 176.695 53.1735 177.41 53.1735C178.125 53.1735 178.728 52.9142 179.218 52.3955C179.723 51.8767 179.975 51.1687 179.975 50.2715ZM185.458 50.2505C185.458 49.0448 185.682 47.9863 186.131 47.075C186.593 46.1638 187.217 45.4628 188.002 44.9721C188.787 44.4814 189.664 44.2361 190.631 44.2361C191.402 44.2361 192.103 44.3973 192.734 44.7198C193.379 45.0422 193.884 45.4768 194.248 46.0236V40.577H197.844V56.1387H194.248V54.4563C193.912 55.0171 193.428 55.4657 192.797 55.8022C192.18 56.1387 191.458 56.3069 190.631 56.3069C189.664 56.3069 188.787 56.0616 188.002 55.5709C187.217 55.0662 186.593 54.3582 186.131 53.4469C185.682 52.5216 185.458 51.4561 185.458 50.2505ZM194.248 50.2715C194.248 49.3742 193.996 48.6663 193.491 48.1475C193 47.6288 192.398 47.3694 191.683 47.3694C190.968 47.3694 190.358 47.6288 189.853 48.1475C189.362 48.6522 189.117 49.3532 189.117 50.2505C189.117 51.1477 189.362 51.8627 189.853 52.3955C190.358 52.9142 190.968 53.1735 191.683 53.1735C192.398 53.1735 193 52.9142 193.491 52.3955C193.996 51.8767 194.248 51.1687 194.248 50.2715ZM216.889 44.4043L209.529 61.7114H205.659L208.351 55.7391L203.577 44.4043H207.594L210.307 51.7435L212.998 44.4043H216.889ZM223.531 56.3069C222.381 56.3069 221.344 56.0616 220.418 55.5709C219.507 55.0802 218.785 54.3792 218.252 53.4679C217.734 52.5567 217.474 51.4912 217.474 50.2715C217.474 49.0658 217.741 48.0073 218.273 47.0961C218.806 46.1708 219.535 45.4628 220.46 44.9721C221.386 44.4814 222.423 44.2361 223.573 44.2361C224.722 44.2361 225.76 44.4814 226.685 44.9721C227.61 45.4628 228.339 46.1708 228.872 47.0961C229.405 48.0073 229.671 49.0658 229.671 50.2715C229.671 51.4772 229.398 52.5427 228.851 53.4679C228.318 54.3792 227.582 55.0802 226.643 55.5709C225.718 56.0616 224.68 56.3069 223.531 56.3069ZM223.531 53.1946C224.218 53.1946 224.799 52.9422 225.276 52.4375C225.767 51.9328 226.012 51.2108 226.012 50.2715C226.012 49.3322 225.774 48.6102 225.297 48.1055C224.834 47.6008 224.26 47.3484 223.573 47.3484C222.872 47.3484 222.29 47.6008 221.827 48.1055C221.365 48.5962 221.133 49.3182 221.133 50.2715C221.133 51.2108 221.358 51.9328 221.806 52.4375C222.269 52.9422 222.844 53.1946 223.531 53.1946ZM243.166 44.4043V56.1387H239.57V54.5404C239.206 55.0592 238.708 55.4798 238.077 55.8022C237.46 56.1106 236.773 56.2648 236.016 56.2648C235.119 56.2648 234.327 56.0686 233.64 55.676C232.953 55.2695 232.42 54.6876 232.042 53.9306C231.663 53.1735 231.474 52.2833 231.474 51.2599V44.4043H235.049V50.7762C235.049 51.5613 235.252 52.1711 235.659 52.6057C236.065 53.0404 236.612 53.2577 237.299 53.2577C238 53.2577 238.554 53.0404 238.96 52.6057C239.367 52.1711 239.57 51.5613 239.57 50.7762V44.4043H243.166ZM249.345 46.36C249.766 45.7151 250.291 45.2104 250.922 44.8459C251.553 44.4674 252.254 44.2781 253.025 44.2781V48.0844H252.037C251.14 48.0844 250.467 48.2807 250.018 48.6733C249.569 49.0518 249.345 49.7247 249.345 50.6921V56.1387H245.749V44.4043H249.345V46.36ZM258.591 48.7364C258.591 47.2783 258.906 45.9815 259.537 44.8459C260.168 43.6963 261.044 42.8061 262.166 42.1752C263.301 41.5303 264.584 41.2079 266.014 41.2079C267.766 41.2079 269.266 41.6705 270.514 42.5958C271.762 43.5211 272.596 44.7828 273.017 46.3811H269.063C268.769 45.7642 268.348 45.2946 267.801 44.9721C267.269 44.6497 266.659 44.4884 265.972 44.4884C264.864 44.4884 263.967 44.874 263.28 45.645C262.593 46.4161 262.25 47.4466 262.25 48.7364C262.25 50.0262 262.593 51.0566 263.28 51.8277C263.967 52.5987 264.864 52.9843 265.972 52.9843C266.659 52.9843 267.269 52.8231 267.801 52.5006C268.348 52.1782 268.769 51.7085 269.063 51.0916H273.017C272.596 52.6899 271.762 53.9516 270.514 54.8769C269.266 55.7882 267.766 56.2438 266.014 56.2438C264.584 56.2438 263.301 55.9284 262.166 55.2975C261.044 54.6526 260.168 53.7624 259.537 52.6268C258.906 51.4912 258.591 50.1944 258.591 48.7364ZM289.077 41.3761L283.841 56.1387H279.341L274.104 41.3761H277.932L281.591 52.5216L285.271 41.3761H289.077Z" fill="#333333"/>
</g>
<defs>
<filter id="filter0_bd_22_13839" x="-0.0656815" y="-4.98609" width="334.132" height="111.735" filterUnits="userSpaceOnUse" color-interpolation-filters="sRGB">
<feFlood flood-opacity="0" result="BackgroundImageFix"/>
<feGaussianBlur in="BackgroundImageFix" stdDeviation="5.25733"/>
<feComposite in2="SourceAlpha" operator="in" result="effect1_backgroundBlur_22_13839"/>
<feColorMatrix in="SourceAlpha" type="matrix" values="0 0 0 0 0 0 0 0 0 0 0 0 0 0 0 0 0 0 127 0" result="hardAlpha"/>
<feOffset dy="5"/>
<feGaussianBlur stdDeviation="5"/>
<feComposite in2="hardAlpha" operator="out"/>
<feColorMatrix type="matrix" values="0 0 0 0 0.2 0 0 0 0 0.189167 0 0 0 0 0.189167 0 0 0 0.25 0"/>
<feBlend mode="normal" in2="effect1_backgroundBlur_22_13839" result="effect2_dropShadow_22_13839"/>
<feBlend mode="normal" in="SourceGraphic" in2="effect2_dropShadow_22_13839" result="shape"/>
</filter>
</defs>
</svg>
