<svg width="389" height="132" viewBox="0 0 389 132" fill="none" xmlns="http://www.w3.org/2000/svg">
<g filter="url(#filter0_bd_22_13832)">
<rect x="10.8795" y="5.76978" width="368.102" height="110.853" rx="16.8235" fill="#FFFDFD" fill-opacity="0.6" shape-rendering="crispEdges"/>
<path fill-rule="evenodd" clip-rule="evenodd" d="M70.8131 37.1001C57.5055 37.1001 46.717 47.8886 46.717 61.1962C46.717 74.5038 57.5055 85.2923 70.8131 85.2923C84.1207 85.2923 94.9092 74.5038 94.9092 61.1962C94.9092 47.8886 84.1207 37.1001 70.8131 37.1001ZM81.2577 57.1218C81.45 56.9019 81.5964 56.6458 81.6883 56.3686C81.7802 56.0913 81.8157 55.7985 81.7928 55.5073C81.7698 55.2161 81.6889 54.9324 81.5547 54.673C81.4205 54.4136 81.2357 54.1836 81.0114 53.9966C80.787 53.8096 80.5274 53.6694 80.2481 53.5841C79.9687 53.4989 79.6751 53.4705 79.3845 53.5004C79.094 53.5303 78.8123 53.6181 78.5562 53.7585C78.3 53.8988 78.0746 54.089 77.893 54.3178L68.4736 65.6189L63.5996 60.7427C63.1865 60.3437 62.6332 60.1229 62.0588 60.1279C61.4844 60.1329 60.935 60.3633 60.5289 60.7694C60.1227 61.1756 59.8924 61.725 59.8874 62.2993C59.8824 62.8737 60.1032 63.427 60.5022 63.8402L67.0739 70.4118C67.2891 70.627 67.5468 70.7949 67.8305 70.9049C68.1142 71.0148 68.4178 71.0645 68.7217 71.0507C69.0257 71.0369 69.3235 70.9599 69.5961 70.8246C69.8687 70.6894 70.1101 70.4988 70.3049 70.2651L81.2577 57.1218Z" fill="#219653"/>
<path d="M136.298 29.8307L131.188 39.7145V44.5933H127.592V39.7145L122.482 29.8307H126.562L129.422 36.0133L132.261 29.8307H136.298ZM143.089 44.7615C141.939 44.7615 140.902 44.5162 139.976 44.0255C139.065 43.5348 138.343 42.8338 137.81 41.9225C137.292 41.0113 137.032 39.9458 137.032 38.7261C137.032 37.5204 137.299 36.4619 137.831 35.5507C138.364 34.6254 139.093 33.9174 140.018 33.4267C140.944 32.936 141.981 32.6907 143.131 32.6907C144.28 32.6907 145.318 32.936 146.243 33.4267C147.168 33.9174 147.897 34.6254 148.43 35.5507C148.963 36.4619 149.229 37.5204 149.229 38.7261C149.229 39.9318 148.956 40.9972 148.409 41.9225C147.876 42.8338 147.14 43.5348 146.201 44.0255C145.276 44.5162 144.238 44.7615 143.089 44.7615ZM143.089 41.6492C143.776 41.6492 144.357 41.3968 144.834 40.8921C145.325 40.3874 145.57 39.6654 145.57 38.7261C145.57 37.7868 145.332 37.0648 144.855 36.5601C144.392 36.0554 143.818 35.803 143.131 35.803C142.43 35.803 141.848 36.0554 141.385 36.5601C140.923 37.0507 140.691 37.7728 140.691 38.7261C140.691 39.6654 140.916 40.3874 141.364 40.8921C141.827 41.3968 142.402 41.6492 143.089 41.6492ZM162.724 32.8589V44.5933H159.128V42.995C158.764 43.5138 158.266 43.9343 157.635 44.2568C157.018 44.5652 156.331 44.7194 155.574 44.7194C154.677 44.7194 153.885 44.5232 153.198 44.1306C152.511 43.7241 151.978 43.1422 151.6 42.3852C151.221 41.6281 151.032 40.7379 151.032 39.7145V32.8589H154.607V39.2308C154.607 40.0159 154.81 40.6257 155.217 41.0603C155.623 41.4949 156.17 41.7122 156.857 41.7122C157.558 41.7122 158.112 41.4949 158.518 41.0603C158.925 40.6257 159.128 40.0159 159.128 39.2308V32.8589H162.724ZM178.953 41.9856H173.444L172.56 44.5933H168.796L174.138 29.8307H178.301L183.643 44.5933H179.837L178.953 41.9856ZM178.028 39.2098L176.198 33.8052L174.39 39.2098H178.028ZM188.865 34.8146C189.285 34.1697 189.811 33.665 190.442 33.3005C191.073 32.922 191.774 32.7327 192.545 32.7327V36.539H191.556C190.659 36.539 189.986 36.7353 189.537 37.1279C189.089 37.5064 188.865 38.1793 188.865 39.1467V44.5933H185.269V32.8589H188.865V34.8146ZM205.325 38.5368C205.325 38.8733 205.304 39.2238 205.262 39.5883H197.123C197.18 40.3173 197.411 40.8781 197.817 41.2706C198.238 41.6492 198.75 41.8384 199.353 41.8384C200.25 41.8384 200.874 41.4599 201.224 40.7028H205.052C204.855 41.4739 204.498 42.1679 203.979 42.7847C203.474 43.4016 202.836 43.8853 202.065 44.2358C201.294 44.5863 200.432 44.7615 199.479 44.7615C198.329 44.7615 197.306 44.5162 196.408 44.0255C195.511 43.5348 194.81 42.8338 194.306 41.9225C193.801 41.0113 193.548 39.9458 193.548 38.7261C193.548 37.5064 193.794 36.4409 194.284 35.5296C194.789 34.6184 195.49 33.9174 196.387 33.4267C197.285 32.936 198.315 32.6907 199.479 32.6907C200.614 32.6907 201.624 32.929 202.507 33.4057C203.39 33.8823 204.077 34.5623 204.568 35.4455C205.073 36.3287 205.325 37.3592 205.325 38.5368ZM201.645 37.5905C201.645 36.9736 201.434 36.483 201.014 36.1184C200.593 35.7539 200.068 35.5717 199.437 35.5717C198.834 35.5717 198.322 35.7469 197.902 36.0974C197.495 36.4479 197.243 36.9456 197.144 37.5905H201.645ZM224.464 29.8307V44.5933H220.868V38.5158H215.274V44.5933H211.678V29.8307H215.274V35.6137H220.868V29.8307H224.464ZM228.869 31.6392C228.238 31.6392 227.719 31.457 227.313 31.0924C226.92 30.7139 226.724 30.2513 226.724 29.7045C226.724 29.1437 226.92 28.6811 227.313 28.3166C227.719 27.938 228.238 27.7488 228.869 27.7488C229.486 27.7488 229.99 27.938 230.383 28.3166C230.789 28.6811 230.993 29.1437 230.993 29.7045C230.993 30.2513 230.789 30.7139 230.383 31.0924C229.99 31.457 229.486 31.6392 228.869 31.6392ZM230.656 32.8589V44.5933H227.06V32.8589H230.656ZM236.858 34.8146C237.279 34.1697 237.804 33.665 238.435 33.3005C239.066 32.922 239.767 32.7327 240.538 32.7327V36.539H239.55C238.653 36.539 237.98 36.7353 237.531 37.1279C237.082 37.5064 236.858 38.1793 236.858 39.1467V44.5933H233.262V32.8589H236.858V34.8146ZM253.319 38.5368C253.319 38.8733 253.298 39.2238 253.255 39.5883H245.117C245.173 40.3173 245.405 40.8781 245.811 41.2706C246.232 41.6492 246.743 41.8384 247.346 41.8384C248.243 41.8384 248.867 41.4599 249.218 40.7028H253.045C252.849 41.4739 252.491 42.1679 251.973 42.7847C251.468 43.4016 250.83 43.8853 250.059 44.2358C249.288 44.5863 248.426 44.7615 247.472 44.7615C246.323 44.7615 245.299 44.5162 244.402 44.0255C243.505 43.5348 242.804 42.8338 242.299 41.9225C241.794 41.0113 241.542 39.9458 241.542 38.7261C241.542 37.5064 241.787 36.4409 242.278 35.5296C242.783 34.6184 243.484 33.9174 244.381 33.4267C245.278 32.936 246.309 32.6907 247.472 32.6907C248.608 32.6907 249.617 32.929 250.501 33.4057C251.384 33.8823 252.071 34.5623 252.561 35.4455C253.066 36.3287 253.319 37.3592 253.319 38.5368ZM249.638 37.5905C249.638 36.9736 249.428 36.483 249.008 36.1184C248.587 35.7539 248.061 35.5717 247.43 35.5717C246.827 35.5717 246.316 35.7469 245.895 36.0974C245.489 36.4479 245.236 36.9456 245.138 37.5905H249.638ZM254.501 38.7051C254.501 37.4994 254.725 36.4409 255.174 35.5296C255.636 34.6184 256.26 33.9174 257.045 33.4267C257.83 32.936 258.706 32.6907 259.674 32.6907C260.445 32.6907 261.146 32.8519 261.777 33.1743C262.422 33.4968 262.926 33.9314 263.291 34.4782V29.0316H266.887V44.5933H263.291V42.9109C262.954 43.4717 262.471 43.9203 261.84 44.2568C261.223 44.5933 260.501 44.7615 259.674 44.7615C258.706 44.7615 257.83 44.5162 257.045 44.0255C256.26 43.5208 255.636 42.8128 255.174 41.9015C254.725 40.9762 254.501 39.9107 254.501 38.7051ZM263.291 38.7261C263.291 37.8288 263.039 37.1208 262.534 36.6021C262.043 36.0834 261.44 35.824 260.725 35.824C260.01 35.824 259.4 36.0834 258.896 36.6021C258.405 37.1068 258.16 37.8078 258.16 38.7051C258.16 39.6023 258.405 40.3173 258.896 40.85C259.4 41.3688 260.01 41.6281 260.725 41.6281C261.44 41.6281 262.043 41.3688 262.534 40.85C263.039 40.3313 263.291 39.6233 263.291 38.7261Z" fill="#333333"/>
<path d="M122.879 66.6616C122.879 65.6606 123.11 64.7627 123.571 63.9678C124.042 63.1728 124.675 62.5546 125.47 62.113C126.275 61.6615 127.153 61.4358 128.105 61.4358C129.195 61.4358 130.161 61.7057 131.005 62.2455C131.859 62.7754 132.477 63.531 132.86 64.5124H130.843C130.578 63.9727 130.21 63.5703 129.739 63.3053C129.268 63.0404 128.724 62.9079 128.105 62.9079C127.428 62.9079 126.825 63.06 126.295 63.3642C125.765 63.6684 125.348 64.1051 125.043 64.6743C124.749 65.2435 124.602 65.906 124.602 66.6616C124.602 67.4173 124.749 68.0797 125.043 68.6489C125.348 69.2181 125.765 69.6597 126.295 69.9737C126.825 70.278 127.428 70.4301 128.105 70.4301C128.724 70.4301 129.268 70.2976 129.739 70.0326C130.21 69.7676 130.578 69.3653 130.843 68.8255H132.86C132.477 69.8069 131.859 70.5625 131.005 71.0925C130.161 71.6224 129.195 71.8874 128.105 71.8874C127.144 71.8874 126.265 71.6666 125.47 71.225C124.675 70.7735 124.042 70.1504 123.571 69.3555C123.11 68.5606 122.879 67.6626 122.879 66.6616ZM138.342 71.9316C137.577 71.9316 136.885 71.7598 136.267 71.4163C135.649 71.063 135.163 70.5724 134.81 69.9443C134.456 69.3064 134.28 68.5704 134.28 67.7362C134.28 66.9119 134.461 66.1807 134.824 65.5429C135.187 64.905 135.683 64.4143 136.311 64.0708C136.939 63.7273 137.641 63.5556 138.416 63.5556C139.191 63.5556 139.893 63.7273 140.521 64.0708C141.149 64.4143 141.645 64.905 142.008 65.5429C142.371 66.1807 142.553 66.9119 142.553 67.7362C142.553 68.5606 142.366 69.2917 141.993 69.9296C141.62 70.5675 141.11 71.063 140.462 71.4163C139.824 71.7598 139.118 71.9316 138.342 71.9316ZM138.342 70.4742C138.774 70.4742 139.177 70.3712 139.55 70.1651C139.932 69.959 140.241 69.6499 140.477 69.2377C140.712 68.8255 140.83 68.325 140.83 67.7362C140.83 67.1474 140.717 66.6518 140.492 66.2494C140.266 65.8373 139.967 65.5281 139.594 65.322C139.221 65.116 138.818 65.0129 138.387 65.0129C137.955 65.0129 137.552 65.116 137.18 65.322C136.816 65.5281 136.527 65.8373 136.311 66.2494C136.095 66.6518 135.987 67.1474 135.987 67.7362C135.987 68.6096 136.208 69.2868 136.65 69.7676C137.101 70.2387 137.665 70.4742 138.342 70.4742ZM148.304 63.5556C148.942 63.5556 149.511 63.6881 150.011 63.953C150.522 64.218 150.919 64.6106 151.204 65.1307C151.488 65.6508 151.631 66.2789 151.631 67.0149V71.7991H149.967V67.2652C149.967 66.5389 149.786 65.9845 149.423 65.6017C149.059 65.2092 148.564 65.0129 147.936 65.0129C147.308 65.0129 146.807 65.2092 146.434 65.6017C146.071 65.9845 145.89 66.5389 145.89 67.2652V71.7991H144.211V63.6881H145.89V64.6155C146.164 64.2818 146.513 64.0217 146.935 63.8353C147.367 63.6488 147.823 63.5556 148.304 63.5556ZM157.039 63.5556C157.667 63.5556 158.222 63.6832 158.703 63.9383C159.193 64.1837 159.576 64.4928 159.851 64.8657V63.6881H161.544V71.9316C161.544 72.6774 161.387 73.3398 161.073 73.9188C160.759 74.5076 160.302 74.9689 159.704 75.3026C159.115 75.6362 158.408 75.8031 157.584 75.8031C156.485 75.8031 155.572 75.543 154.846 75.0229C154.12 74.5126 153.707 73.8158 153.609 72.9326H155.273C155.4 73.3545 155.67 73.6931 156.082 73.9483C156.504 74.2132 157.005 74.3457 157.584 74.3457C158.261 74.3457 158.806 74.1396 159.218 73.7275C159.64 73.3153 159.851 72.7167 159.851 71.9316V70.5773C159.566 70.96 159.179 71.2839 158.688 71.5488C158.207 71.804 157.657 71.9316 157.039 71.9316C156.333 71.9316 155.685 71.7549 155.096 71.4016C154.517 71.0385 154.056 70.538 153.712 69.9001C153.379 69.2524 153.212 68.5213 153.212 67.7068C153.212 66.8922 153.379 66.1709 153.712 65.5429C154.056 64.9148 154.517 64.429 155.096 64.0855C155.685 63.7322 156.333 63.5556 157.039 63.5556ZM159.851 67.7362C159.851 67.1768 159.733 66.6911 159.497 66.2789C159.272 65.8667 158.972 65.5527 158.6 65.3368C158.227 65.1209 157.824 65.0129 157.392 65.0129C156.961 65.0129 156.558 65.1209 156.185 65.3368C155.812 65.5429 155.508 65.852 155.273 66.2642C155.047 66.6665 154.934 67.1474 154.934 67.7068C154.934 68.2661 155.047 68.7568 155.273 69.1788C155.508 69.6008 155.812 69.9247 156.185 70.1504C156.568 70.3663 156.97 70.4742 157.392 70.4742C157.824 70.4742 158.227 70.3663 158.6 70.1504C158.972 69.9345 159.272 69.6204 159.497 69.2083C159.733 68.7863 159.851 68.2956 159.851 67.7362ZM165.426 64.8657C165.671 64.4535 165.995 64.1346 166.397 63.9089C166.81 63.6733 167.295 63.5556 167.855 63.5556V65.2926H167.428C166.77 65.2926 166.27 65.4594 165.926 65.7931C165.593 66.1268 165.426 66.7058 165.426 67.5301V71.7991H163.748V63.6881H165.426V64.8657ZM168.838 67.7068C168.838 66.8922 169.005 66.1709 169.338 65.5429C169.682 64.9148 170.143 64.429 170.722 64.0855C171.311 63.7322 171.959 63.5556 172.665 63.5556C173.303 63.5556 173.858 63.6832 174.329 63.9383C174.81 64.1837 175.192 64.4928 175.477 64.8657V63.6881H177.17V71.7991H175.477V70.592C175.192 70.9747 174.805 71.2937 174.314 71.5488C173.823 71.804 173.264 71.9316 172.636 71.9316C171.939 71.9316 171.301 71.7549 170.722 71.4016C170.143 71.0385 169.682 70.538 169.338 69.9001C169.005 69.2524 168.838 68.5213 168.838 67.7068ZM175.477 67.7362C175.477 67.1768 175.359 66.6911 175.124 66.2789C174.898 65.8667 174.599 65.5527 174.226 65.3368C173.853 65.1209 173.45 65.0129 173.019 65.0129C172.587 65.0129 172.184 65.1209 171.812 65.3368C171.439 65.5429 171.134 65.852 170.899 66.2642C170.673 66.6665 170.56 67.1474 170.56 67.7068C170.56 68.2661 170.673 68.7568 170.899 69.1788C171.134 69.6008 171.439 69.9247 171.812 70.1504C172.194 70.3663 172.597 70.4742 173.019 70.4742C173.45 70.4742 173.853 70.3663 174.226 70.1504C174.599 69.9345 174.898 69.6204 175.124 69.2083C175.359 68.7863 175.477 68.2956 175.477 67.7362ZM181.332 65.0571V69.5468C181.332 69.8511 181.4 70.0719 181.538 70.2093C181.685 70.3368 181.93 70.4006 182.274 70.4006H183.304V71.7991H181.98C181.224 71.7991 180.645 71.6224 180.242 71.2691C179.84 70.9158 179.639 70.3417 179.639 69.5468V65.0571H178.682V63.6881H179.639V61.6714H181.332V63.6881H183.304V65.0571H181.332ZM187.795 71.9316C187.157 71.9316 186.583 71.8187 186.073 71.593C185.572 71.3575 185.175 71.0434 184.88 70.6509C184.586 70.2485 184.429 69.802 184.409 69.3113H186.146C186.176 69.6548 186.338 69.9443 186.632 70.1798C186.936 70.4055 187.314 70.5184 187.766 70.5184C188.237 70.5184 188.6 70.4301 188.855 70.2534C189.12 70.067 189.252 69.8314 189.252 69.5468C189.252 69.2426 189.105 69.0169 188.811 68.8697C188.526 68.7225 188.07 68.5606 187.442 68.3839C186.833 68.2171 186.338 68.0552 185.955 67.8981C185.572 67.7411 185.239 67.5007 184.954 67.1768C184.679 66.853 184.542 66.4261 184.542 65.8961C184.542 65.4643 184.669 65.0718 184.925 64.7185C185.18 64.3554 185.543 64.0708 186.014 63.8647C186.495 63.6586 187.044 63.5556 187.663 63.5556C188.585 63.5556 189.326 63.7911 189.885 64.2622C190.455 64.7234 190.759 65.3564 190.798 66.1611H189.12C189.091 65.798 188.943 65.5085 188.678 65.2926C188.413 65.0767 188.055 64.9688 187.604 64.9688C187.162 64.9688 186.824 65.0522 186.588 65.219C186.353 65.3858 186.235 65.6066 186.235 65.8814C186.235 66.0973 186.313 66.2789 186.47 66.4261C186.627 66.5733 186.819 66.6911 187.044 66.7794C187.27 66.8579 187.604 66.9609 188.045 67.0885C188.634 67.2455 189.115 67.4075 189.488 67.5743C189.871 67.7313 190.199 67.9668 190.474 68.2809C190.749 68.5949 190.891 69.012 190.901 69.5321C190.901 69.9934 190.774 70.4055 190.518 70.7686C190.263 71.1317 189.9 71.4163 189.429 71.6224C188.968 71.8285 188.423 71.9316 187.795 71.9316ZM203.84 63.6881L198.864 75.6117H197.127L198.776 71.6666L195.581 63.6881H197.451L199.733 69.8707L202.103 63.6881H203.84ZM208.624 71.9316C207.859 71.9316 207.167 71.7598 206.549 71.4163C205.93 71.063 205.445 70.5724 205.091 69.9443C204.738 69.3064 204.561 68.5704 204.561 67.7362C204.561 66.9119 204.743 66.1807 205.106 65.5429C205.469 64.905 205.965 64.4143 206.593 64.0708C207.221 63.7273 207.923 63.5556 208.698 63.5556C209.473 63.5556 210.175 63.7273 210.803 64.0708C211.431 64.4143 211.927 64.905 212.29 65.5429C212.653 66.1807 212.834 66.9119 212.834 67.7362C212.834 68.5606 212.648 69.2917 212.275 69.9296C211.902 70.5675 211.392 71.063 210.744 71.4163C210.106 71.7598 209.4 71.9316 208.624 71.9316ZM208.624 70.4742C209.056 70.4742 209.458 70.3712 209.831 70.1651C210.214 69.959 210.523 69.6499 210.759 69.2377C210.994 68.8255 211.112 68.325 211.112 67.7362C211.112 67.1474 210.999 66.6518 210.774 66.2494C210.548 65.8373 210.248 65.5281 209.876 65.322C209.503 65.116 209.1 65.0129 208.668 65.0129C208.237 65.0129 207.834 65.116 207.461 65.322C207.098 65.5281 206.809 65.8373 206.593 66.2494C206.377 66.6518 206.269 67.1474 206.269 67.7362C206.269 68.6096 206.49 69.2868 206.931 69.7676C207.383 70.2387 207.947 70.4742 208.624 70.4742ZM221.839 63.6881V71.7991H220.161V70.8422C219.896 71.1759 219.547 71.4409 219.116 71.6371C218.694 71.8236 218.242 71.9168 217.761 71.9168C217.123 71.9168 216.549 71.7844 216.039 71.5194C215.538 71.2544 215.141 70.8619 214.847 70.3417C214.562 69.8216 214.42 69.1935 214.42 68.4575V63.6881H216.083V68.2073C216.083 68.9335 216.265 69.4929 216.628 69.8854C216.991 70.2681 217.487 70.4595 218.115 70.4595C218.743 70.4595 219.238 70.2681 219.601 69.8854C219.974 69.4929 220.161 68.9335 220.161 68.2073V63.6881H221.839ZM231.145 63.5556C231.773 63.5556 232.327 63.6832 232.808 63.9383C233.299 64.1837 233.682 64.4928 233.957 64.8657V63.6881H235.649V71.9316C235.649 72.6774 235.492 73.3398 235.178 73.9188C234.864 74.5076 234.408 74.9689 233.809 75.3026C233.22 75.6362 232.514 75.8031 231.69 75.8031C230.59 75.8031 229.678 75.543 228.952 75.0229C228.225 74.5126 227.813 73.8158 227.715 72.9326H229.378C229.506 73.3545 229.776 73.6931 230.188 73.9483C230.61 74.2132 231.111 74.3457 231.69 74.3457C232.367 74.3457 232.911 74.1396 233.324 73.7275C233.746 73.3153 233.957 72.7167 233.957 71.9316V70.5773C233.672 70.96 233.284 71.2839 232.794 71.5488C232.313 71.804 231.763 71.9316 231.145 71.9316C230.438 71.9316 229.791 71.7549 229.202 71.4016C228.623 71.0385 228.162 70.538 227.818 69.9001C227.484 69.2524 227.318 68.5213 227.318 67.7068C227.318 66.8922 227.484 66.1709 227.818 65.5429C228.162 64.9148 228.623 64.429 229.202 64.0855C229.791 63.7322 230.438 63.5556 231.145 63.5556ZM233.957 67.7362C233.957 67.1768 233.839 66.6911 233.603 66.2789C233.378 65.8667 233.078 65.5527 232.705 65.3368C232.332 65.1209 231.93 65.0129 231.498 65.0129C231.066 65.0129 230.664 65.1209 230.291 65.3368C229.918 65.5429 229.614 65.852 229.378 66.2642C229.153 66.6665 229.04 67.1474 229.04 67.7068C229.04 68.2661 229.153 68.7568 229.378 69.1788C229.614 69.6008 229.918 69.9247 230.291 70.1504C230.674 70.3663 231.076 70.4742 231.498 70.4742C231.93 70.4742 232.332 70.3663 232.705 70.1504C233.078 69.9345 233.378 69.6204 233.603 69.2083C233.839 68.7863 233.957 68.2956 233.957 67.7362ZM241.372 71.9316C240.606 71.9316 239.914 71.7598 239.296 71.4163C238.678 71.063 238.192 70.5724 237.839 69.9443C237.486 69.3064 237.309 68.5704 237.309 67.7362C237.309 66.9119 237.49 66.1807 237.854 65.5429C238.217 64.905 238.712 64.4143 239.34 64.0708C239.968 63.7273 240.67 63.5556 241.445 63.5556C242.221 63.5556 242.922 63.7273 243.55 64.0708C244.178 64.4143 244.674 64.905 245.037 65.5429C245.4 66.1807 245.582 66.9119 245.582 67.7362C245.582 68.5606 245.395 69.2917 245.022 69.9296C244.65 70.5675 244.139 71.063 243.491 71.4163C242.854 71.7598 242.147 71.9316 241.372 71.9316ZM241.372 70.4742C241.804 70.4742 242.206 70.3712 242.579 70.1651C242.962 69.959 243.271 69.6499 243.506 69.2377C243.742 68.8255 243.86 68.325 243.86 67.7362C243.86 67.1474 243.747 66.6518 243.521 66.2494C243.295 65.8373 242.996 65.5281 242.623 65.322C242.25 65.116 241.848 65.0129 241.416 65.0129C240.984 65.0129 240.582 65.116 240.209 65.322C239.846 65.5281 239.556 65.8373 239.34 66.2494C239.124 66.6518 239.016 67.1474 239.016 67.7362C239.016 68.6096 239.237 69.2868 239.679 69.7676C240.13 70.2387 240.695 70.4742 241.372 70.4742ZM249.199 65.0571V69.5468C249.199 69.8511 249.267 70.0719 249.405 70.2093C249.552 70.3368 249.797 70.4006 250.141 70.4006H251.171V71.7991H249.846C249.091 71.7991 248.512 71.6224 248.109 71.2691C247.707 70.9158 247.506 70.3417 247.506 69.5468V65.0571H246.549V63.6881H247.506V61.6714H249.199V63.6881H251.171V65.0571H249.199ZM258.5 65.0571V69.5468C258.5 69.8511 258.568 70.0719 258.706 70.2093C258.853 70.3368 259.098 70.4006 259.442 70.4006H260.472V71.7991H259.147C258.392 71.7991 257.813 71.6224 257.41 71.2691C257.008 70.9158 256.807 70.3417 256.807 69.5468V65.0571H255.85V63.6881H256.807V61.6714H258.5V63.6881H260.472V65.0571H258.5ZM266.214 63.5556C266.832 63.5556 267.382 63.6881 267.863 63.953C268.353 64.218 268.736 64.6106 269.011 65.1307C269.296 65.6508 269.438 66.2789 269.438 67.0149V71.7991H267.774V67.2652C267.774 66.5389 267.593 65.9845 267.23 65.6017C266.867 65.2092 266.371 65.0129 265.743 65.0129C265.115 65.0129 264.614 65.2092 264.242 65.6017C263.878 65.9845 263.697 66.5389 263.697 67.2652V71.7991H262.019V60.9059H263.697V64.6302C263.981 64.2867 264.34 64.0217 264.771 63.8353C265.213 63.6488 265.694 63.5556 266.214 63.5556ZM279.012 67.5448C279.012 67.8491 278.993 68.1238 278.953 68.3692H272.756C272.805 69.0169 273.046 69.537 273.477 69.9296C273.909 70.3221 274.439 70.5184 275.067 70.5184C275.97 70.5184 276.608 70.1406 276.981 69.3849H278.792C278.546 70.1307 278.1 70.7441 277.452 71.225C276.814 71.696 276.019 71.9316 275.067 71.9316C274.292 71.9316 273.595 71.7598 272.977 71.4163C272.368 71.063 271.888 70.5724 271.534 69.9443C271.191 69.3064 271.019 68.5704 271.019 67.7362C271.019 66.902 271.186 66.1709 271.52 65.5429C271.863 64.905 272.339 64.4143 272.947 64.0708C273.566 63.7273 274.272 63.5556 275.067 63.5556C275.833 63.5556 276.515 63.7224 277.113 64.0561C277.712 64.3897 278.178 64.8608 278.512 65.4692C278.846 66.0679 279.012 66.7597 279.012 67.5448ZM277.261 67.0149C277.251 66.3966 277.03 65.9011 276.598 65.5281C276.166 65.1552 275.632 64.9688 274.994 64.9688C274.415 64.9688 273.919 65.1552 273.507 65.5281C273.095 65.8912 272.849 66.3868 272.771 67.0149H277.261ZM285.341 62.6135C285.037 62.6135 284.782 62.5104 284.576 62.3043C284.37 62.0982 284.267 61.8431 284.267 61.5389C284.267 61.2346 284.37 60.9795 284.576 60.7734C284.782 60.5673 285.037 60.4643 285.341 60.4643C285.636 60.4643 285.886 60.5673 286.092 60.7734C286.298 60.9795 286.401 61.2346 286.401 61.5389C286.401 61.8431 286.298 62.0982 286.092 62.3043C285.886 62.5104 285.636 62.6135 285.341 62.6135ZM286.166 73.3889C286.166 74.1838 285.965 74.7579 285.562 75.1112C285.17 75.4743 284.596 75.6558 283.84 75.6558H282.971V74.2427H283.546C283.889 74.2427 284.129 74.174 284.267 74.0366C284.414 73.909 284.488 73.6931 284.488 73.3889V63.6881H286.166V73.3889ZM291.887 71.9316C291.122 71.9316 290.43 71.7598 289.812 71.4163C289.193 71.063 288.708 70.5724 288.354 69.9443C288.001 69.3064 287.824 68.5704 287.824 67.7362C287.824 66.9119 288.006 66.1807 288.369 65.5429C288.732 64.905 289.228 64.4143 289.856 64.0708C290.484 63.7273 291.186 63.5556 291.961 63.5556C292.736 63.5556 293.438 63.7273 294.066 64.0708C294.694 64.4143 295.19 64.905 295.553 65.5429C295.916 66.1807 296.097 66.9119 296.097 67.7362C296.097 68.5606 295.911 69.2917 295.538 69.9296C295.165 70.5675 294.655 71.063 294.007 71.4163C293.369 71.7598 292.663 71.9316 291.887 71.9316ZM291.887 70.4742C292.319 70.4742 292.721 70.3712 293.094 70.1651C293.477 69.959 293.786 69.6499 294.022 69.2377C294.257 68.8255 294.375 68.325 294.375 67.7362C294.375 67.1474 294.262 66.6518 294.036 66.2494C293.811 65.8373 293.511 65.5281 293.139 65.322C292.766 65.116 292.363 65.0129 291.931 65.0129C291.5 65.0129 291.097 65.116 290.724 65.322C290.361 65.5281 290.072 65.8373 289.856 66.2494C289.64 66.6518 289.532 67.1474 289.532 67.7362C289.532 68.6096 289.753 69.2868 290.194 69.7676C290.646 70.2387 291.21 70.4742 291.887 70.4742ZM299.434 64.8951C299.719 64.5026 300.107 64.1837 300.597 63.9383C301.098 63.6832 301.652 63.5556 302.261 63.5556C302.977 63.5556 303.625 63.7273 304.204 64.0708C304.783 64.4143 305.239 64.905 305.573 65.5429C305.907 66.1709 306.073 66.8922 306.073 67.7068C306.073 68.5213 305.907 69.2524 305.573 69.9001C305.239 70.538 304.778 71.0385 304.189 71.4016C303.61 71.7549 302.967 71.9316 302.261 71.9316C301.633 71.9316 301.073 71.8089 300.583 71.5635C300.102 71.3182 299.719 71.0042 299.434 70.6214V71.7991H297.756V60.9059H299.434V64.8951ZM304.366 67.7068C304.366 67.1474 304.248 66.6665 304.012 66.2642C303.787 65.852 303.483 65.5429 303.1 65.3368C302.727 65.1209 302.325 65.0129 301.893 65.0129C301.471 65.0129 301.068 65.1209 300.686 65.3368C300.313 65.5527 300.009 65.8667 299.773 66.2789C299.547 66.6911 299.434 67.1768 299.434 67.7362C299.434 68.2956 299.547 68.7863 299.773 69.2083C300.009 69.6204 300.313 69.9345 300.686 70.1504C301.068 70.3663 301.471 70.4742 301.893 70.4742C302.325 70.4742 302.727 70.3663 303.1 70.1504C303.483 69.9247 303.787 69.6008 304.012 69.1788C304.248 68.7568 304.366 68.2661 304.366 67.7068ZM122.879 89.7068C122.879 88.8922 123.046 88.1709 123.38 87.5429C123.723 86.9148 124.185 86.429 124.764 86.0855C125.353 85.7322 126 85.5556 126.707 85.5556C127.345 85.5556 127.899 85.6832 128.37 85.9383C128.851 86.1837 129.234 86.4928 129.518 86.8657V85.6881H131.211V93.7991H129.518V92.592C129.234 92.9747 128.846 93.2937 128.356 93.5488C127.865 93.804 127.305 93.9316 126.677 93.9316C125.981 93.9316 125.343 93.7549 124.764 93.4016C124.185 93.0385 123.723 92.538 123.38 91.9001C123.046 91.2524 122.879 90.5213 122.879 89.7068ZM129.518 89.7362C129.518 89.1768 129.401 88.6911 129.165 88.2789C128.939 87.8667 128.64 87.5527 128.267 87.3368C127.894 87.1209 127.492 87.0129 127.06 87.0129C126.628 87.0129 126.226 87.1209 125.853 87.3368C125.48 87.5429 125.176 87.852 124.94 88.2642C124.715 88.6665 124.602 89.1474 124.602 89.7068C124.602 90.2661 124.715 90.7568 124.94 91.1788C125.176 91.6008 125.48 91.9247 125.853 92.1504C126.236 92.3663 126.638 92.4742 127.06 92.4742C127.492 92.4742 127.894 92.3663 128.267 92.1504C128.64 91.9345 128.939 91.6204 129.165 91.2083C129.401 90.7863 129.518 90.2956 129.518 89.7362ZM136.36 93.9316C135.722 93.9316 135.148 93.8187 134.637 93.593C134.137 93.3575 133.739 93.0434 133.445 92.6509C133.151 92.2485 132.993 91.802 132.974 91.3113H134.711C134.74 91.6548 134.902 91.9443 135.197 92.1798C135.501 92.4055 135.879 92.5184 136.33 92.5184C136.801 92.5184 137.164 92.4301 137.419 92.2534C137.684 92.067 137.817 91.8314 137.817 91.5468C137.817 91.2426 137.67 91.0169 137.375 90.8697C137.091 90.7225 136.634 90.5606 136.006 90.3839C135.398 90.2171 134.902 90.0552 134.52 89.8981C134.137 89.7411 133.803 89.5007 133.519 89.1768C133.244 88.853 133.106 88.4261 133.106 87.8961C133.106 87.4643 133.234 87.0718 133.489 86.7185C133.744 86.3554 134.107 86.0708 134.578 85.8647C135.059 85.6586 135.609 85.5556 136.227 85.5556C137.15 85.5556 137.891 85.7911 138.45 86.2622C139.019 86.7234 139.323 87.3564 139.363 88.1611H137.684C137.655 87.798 137.508 87.5085 137.243 87.2926C136.978 87.0767 136.62 86.9688 136.168 86.9688C135.727 86.9688 135.388 87.0522 135.153 87.219C134.917 87.3858 134.799 87.6066 134.799 87.8814C134.799 88.0973 134.878 88.2789 135.035 88.4261C135.192 88.5733 135.383 88.6911 135.609 88.7794C135.835 88.8579 136.168 88.9609 136.61 89.0885C137.199 89.2455 137.68 89.4075 138.052 89.5743C138.435 89.7313 138.764 89.9668 139.039 90.2809C139.314 90.5949 139.456 91.012 139.466 91.5321C139.466 91.9934 139.338 92.4055 139.083 92.7686C138.828 93.1317 138.465 93.4163 137.994 93.6224C137.532 93.8285 136.988 93.9316 136.36 93.9316ZM146.766 83.5683V90.0895C146.766 90.8648 146.967 91.4487 147.37 91.8412C147.782 92.2338 148.351 92.4301 149.077 92.4301C149.813 92.4301 150.383 92.2338 150.785 91.8412C151.197 91.4487 151.403 90.8648 151.403 90.0895V83.5683H153.081V90.0601C153.081 90.8942 152.9 91.6008 152.537 92.1798C152.174 92.7588 151.688 93.1906 151.079 93.4752C150.471 93.7598 149.799 93.9021 149.063 93.9021C148.327 93.9021 147.654 93.7598 147.046 93.4752C146.447 93.1906 145.971 92.7588 145.618 92.1798C145.265 91.6008 145.088 90.8942 145.088 90.0601V83.5683H146.766ZM156.12 84.6135C155.816 84.6135 155.561 84.5104 155.355 84.3043C155.148 84.0982 155.045 83.8431 155.045 83.5389C155.045 83.2346 155.148 82.9795 155.355 82.7734C155.561 82.5673 155.816 82.4643 156.12 82.4643C156.414 82.4643 156.665 82.5673 156.871 82.7734C157.077 82.9795 157.18 83.2346 157.18 83.5389C157.18 83.8431 157.077 84.0982 156.871 84.3043C156.665 84.5104 156.414 84.6135 156.12 84.6135ZM156.944 85.6881V93.7991H155.266V85.6881H156.944ZM168.418 79.9029L164.414 96.3752H162.765L166.755 79.9029H168.418ZM176.02 83.5683V90.0895C176.02 90.8648 176.222 91.4487 176.624 91.8412C177.036 92.2338 177.605 92.4301 178.331 92.4301C179.067 92.4301 179.637 92.2338 180.039 91.8412C180.451 91.4487 180.657 90.8648 180.657 90.0895V83.5683H182.335V90.0601C182.335 90.8942 182.154 91.6008 181.791 92.1798C181.428 92.7588 180.942 93.1906 180.333 93.4752C179.725 93.7598 179.053 93.9021 178.317 93.9021C177.581 93.9021 176.908 93.7598 176.3 93.4752C175.701 93.1906 175.225 92.7588 174.872 92.1798C174.519 91.6008 174.342 90.8942 174.342 90.0601V83.5683H176.02ZM189.216 88.6911L192.396 93.7991H190.512L188.201 90.0895L186.037 93.7991H184.167L187.347 88.6911L184.152 83.5683H186.037L188.362 87.3073L190.541 83.5683H192.411L189.216 88.6911ZM201.404 83.5683C202.493 83.5683 203.445 83.7793 204.259 84.2013C205.084 84.6135 205.717 85.2121 206.158 85.9972C206.61 86.7725 206.836 87.6802 206.836 88.7205C206.836 89.7607 206.61 90.6636 206.158 91.4291C205.717 92.1945 205.084 92.7834 204.259 93.1955C203.445 93.5979 202.493 93.7991 201.404 93.7991H198.062V83.5683H201.404ZM201.404 92.4301C202.601 92.4301 203.519 92.1062 204.156 91.4585C204.794 90.8108 205.113 89.8981 205.113 88.7205C205.113 87.533 204.794 86.6056 204.156 85.9383C203.519 85.271 202.601 84.9373 201.404 84.9373H199.74V92.4301H201.404ZM215.933 89.5448C215.933 89.8491 215.913 90.1238 215.874 90.3692H209.676C209.725 91.0169 209.966 91.537 210.398 91.9296C210.83 92.3221 211.359 92.5184 211.988 92.5184C212.89 92.5184 213.528 92.1406 213.901 91.3849H215.712C215.466 92.1307 215.02 92.7441 214.372 93.225C213.734 93.696 212.939 93.9316 211.988 93.9316C211.212 93.9316 210.515 93.7598 209.897 93.4163C209.289 93.063 208.808 92.5724 208.455 91.9443C208.111 91.3064 207.939 90.5704 207.939 89.7362C207.939 88.902 208.106 88.1709 208.44 87.5429C208.783 86.905 209.259 86.4143 209.868 86.0708C210.486 85.7273 211.193 85.5556 211.988 85.5556C212.753 85.5556 213.435 85.7224 214.034 86.0561C214.632 86.3897 215.098 86.8608 215.432 87.4692C215.766 88.0679 215.933 88.7597 215.933 89.5448ZM214.181 89.0149C214.171 88.3966 213.95 87.9011 213.518 87.5281C213.087 87.1552 212.552 86.9688 211.914 86.9688C211.335 86.9688 210.839 87.1552 210.427 87.5281C210.015 87.8912 209.77 88.3868 209.691 89.0149H214.181ZM220.528 93.9316C219.89 93.9316 219.316 93.8187 218.806 93.593C218.305 93.3575 217.908 93.0434 217.614 92.6509C217.319 92.2485 217.162 91.802 217.142 91.3113H218.879C218.909 91.6548 219.071 91.9443 219.365 92.1798C219.669 92.4055 220.047 92.5184 220.499 92.5184C220.97 92.5184 221.333 92.4301 221.588 92.2534C221.853 92.067 221.986 91.8314 221.986 91.5468C221.986 91.2426 221.838 91.0169 221.544 90.8697C221.259 90.7225 220.803 90.5606 220.175 90.3839C219.566 90.2171 219.071 90.0552 218.688 89.8981C218.305 89.7411 217.972 89.5007 217.687 89.1768C217.412 88.853 217.275 88.4261 217.275 87.8961C217.275 87.4643 217.403 87.0718 217.658 86.7185C217.913 86.3554 218.276 86.0708 218.747 85.8647C219.228 85.6586 219.777 85.5556 220.396 85.5556C221.318 85.5556 222.059 85.7911 222.618 86.2622C223.188 86.7234 223.492 87.3564 223.531 88.1611H221.853C221.824 87.798 221.676 87.5085 221.411 87.2926C221.146 87.0767 220.788 86.9688 220.337 86.9688C219.895 86.9688 219.557 87.0522 219.321 87.219C219.086 87.3858 218.968 87.6066 218.968 87.8814C218.968 88.0973 219.046 88.2789 219.203 88.4261C219.36 88.5733 219.552 88.6911 219.777 88.7794C220.003 88.8579 220.337 88.9609 220.778 89.0885C221.367 89.2455 221.848 89.4075 222.221 89.5743C222.604 89.7313 222.933 89.9668 223.207 90.2809C223.482 90.5949 223.624 91.012 223.634 91.5321C223.634 91.9934 223.507 92.4055 223.251 92.7686C222.996 93.1317 222.633 93.4163 222.162 93.6224C221.701 93.8285 221.156 93.9316 220.528 93.9316ZM226.301 84.6135C225.997 84.6135 225.742 84.5104 225.536 84.3043C225.33 84.0982 225.227 83.8431 225.227 83.5389C225.227 83.2346 225.33 82.9795 225.536 82.7734C225.742 82.5673 225.997 82.4643 226.301 82.4643C226.596 82.4643 226.846 82.5673 227.052 82.7734C227.258 82.9795 227.361 83.2346 227.361 83.5389C227.361 83.8431 227.258 84.0982 227.052 84.3043C226.846 84.5104 226.596 84.6135 226.301 84.6135ZM227.126 85.6881V93.7991H225.447V85.6881H227.126ZM232.597 85.5556C233.225 85.5556 233.779 85.6832 234.26 85.9383C234.751 86.1837 235.134 86.4928 235.408 86.8657V85.6881H237.101V93.9316C237.101 94.6774 236.944 95.3398 236.63 95.9188C236.316 96.5076 235.86 96.9689 235.261 97.3026C234.672 97.6362 233.966 97.8031 233.141 97.8031C232.042 97.8031 231.13 97.543 230.403 97.0229C229.677 96.5126 229.265 95.8158 229.167 94.9326H230.83C230.958 95.3545 231.228 95.6931 231.64 95.9483C232.062 96.2132 232.562 96.3457 233.141 96.3457C233.819 96.3457 234.363 96.1396 234.775 95.7275C235.197 95.3153 235.408 94.7167 235.408 93.9316V92.5773C235.124 92.96 234.736 93.2839 234.246 93.5488C233.765 93.804 233.215 93.9316 232.597 93.9316C231.89 93.9316 231.243 93.7549 230.654 93.4016C230.075 93.0385 229.613 92.538 229.27 91.9001C228.936 91.2524 228.769 90.5213 228.769 89.7068C228.769 88.8922 228.936 88.1709 229.27 87.5429C229.613 86.9148 230.075 86.429 230.654 86.0855C231.243 85.7322 231.89 85.5556 232.597 85.5556ZM235.408 89.7362C235.408 89.1768 235.291 88.6911 235.055 88.2789C234.829 87.8667 234.53 87.5527 234.157 87.3368C233.784 87.1209 233.382 87.0129 232.95 87.0129C232.518 87.0129 232.116 87.1209 231.743 87.3368C231.37 87.5429 231.066 87.852 230.83 88.2642C230.605 88.6665 230.492 89.1474 230.492 89.7068C230.492 90.2661 230.605 90.7568 230.83 91.1788C231.066 91.6008 231.37 91.9247 231.743 92.1504C232.126 92.3663 232.528 92.4742 232.95 92.4742C233.382 92.4742 233.784 92.3663 234.157 92.1504C234.53 91.9345 234.829 91.6204 235.055 91.2083C235.291 90.7863 235.408 90.2956 235.408 89.7362ZM243.398 85.5556C244.036 85.5556 244.605 85.6881 245.105 85.953C245.616 86.218 246.013 86.6106 246.298 87.1307C246.582 87.6508 246.725 88.2789 246.725 89.0149V93.7991H245.061V89.2652C245.061 88.5389 244.88 87.9845 244.517 87.6017C244.153 87.2092 243.658 87.0129 243.03 87.0129C242.402 87.0129 241.901 87.2092 241.528 87.6017C241.165 87.9845 240.984 88.5389 240.984 89.2652V93.7991H239.305V85.6881H240.984V86.6155C241.258 86.2818 241.607 86.0217 242.029 85.8353C242.461 85.6488 242.917 85.5556 243.398 85.5556ZM256.299 89.5448C256.299 89.8491 256.279 90.1238 256.24 90.3692H250.043C250.092 91.0169 250.332 91.537 250.764 91.9296C251.196 92.3221 251.726 92.5184 252.354 92.5184C253.257 92.5184 253.895 92.1406 254.268 91.3849H256.078C255.833 92.1307 255.386 92.7441 254.739 93.225C254.101 93.696 253.306 93.9316 252.354 93.9316C251.579 93.9316 250.882 93.7598 250.264 93.4163C249.655 93.063 249.174 92.5724 248.821 91.9443C248.478 91.3064 248.306 90.5704 248.306 89.7362C248.306 88.902 248.473 88.1709 248.806 87.5429C249.15 86.905 249.626 86.4143 250.234 86.0708C250.852 85.7273 251.559 85.5556 252.354 85.5556C253.119 85.5556 253.801 85.7224 254.4 86.0561C254.999 86.3897 255.465 86.8608 255.799 87.4692C256.132 88.0679 256.299 88.7597 256.299 89.5448ZM254.547 89.0149C254.537 88.3966 254.317 87.9011 253.885 87.5281C253.453 87.1552 252.918 86.9688 252.28 86.9688C251.701 86.9688 251.206 87.1552 250.794 87.5281C250.381 87.8912 250.136 88.3868 250.058 89.0149H254.547ZM259.629 86.8657C259.874 86.4535 260.198 86.1346 260.6 85.9089C261.012 85.6733 261.498 85.5556 262.058 85.5556V87.2926H261.631C260.973 87.2926 260.473 87.4594 260.129 87.7931C259.795 88.1268 259.629 88.7058 259.629 89.5301V93.7991H257.95V85.6881H259.629V86.8657ZM266.865 89.7068C266.865 88.8922 267.031 88.1709 267.365 87.5429C267.709 86.9148 268.17 86.429 268.749 86.0855C269.338 85.7322 269.985 85.5556 270.692 85.5556C271.33 85.5556 271.884 85.6832 272.355 85.9383C272.836 86.1837 273.219 86.4928 273.504 86.8657V85.6881H275.196V93.7991H273.504V92.592C273.219 92.9747 272.831 93.2937 272.341 93.5488C271.85 93.804 271.291 93.9316 270.662 93.9316C269.966 93.9316 269.328 93.7549 268.749 93.4016C268.17 93.0385 267.709 92.538 267.365 91.9001C267.031 91.2524 266.865 90.5213 266.865 89.7068ZM273.504 89.7362C273.504 89.1768 273.386 88.6911 273.15 88.2789C272.925 87.8667 272.625 87.5527 272.252 87.3368C271.879 87.1209 271.477 87.0129 271.045 87.0129C270.613 87.0129 270.211 87.1209 269.838 87.3368C269.465 87.5429 269.161 87.852 268.925 88.2642C268.7 88.6665 268.587 89.1474 268.587 89.7068C268.587 90.2661 268.7 90.7568 268.925 91.1788C269.161 91.6008 269.465 91.9247 269.838 92.1504C270.221 92.3663 270.623 92.4742 271.045 92.4742C271.477 92.4742 271.879 92.3663 272.252 92.1504C272.625 91.9345 272.925 91.6204 273.15 91.2083C273.386 90.7863 273.504 90.2956 273.504 89.7362ZM279.358 87.0571V91.5468C279.358 91.8511 279.427 92.0719 279.564 92.2093C279.712 92.3368 279.957 92.4006 280.301 92.4006H281.331V93.7991H280.006C279.25 93.7991 278.671 93.6224 278.269 93.2691C277.867 92.9158 277.666 92.3417 277.666 91.5468V87.0571H276.709V85.6881H277.666V83.6714H279.358V85.6881H281.331V87.0571H279.358ZM286.142 88.6616C286.142 87.6606 286.373 86.7627 286.834 85.9678C287.305 85.1728 287.938 84.5546 288.733 84.113C289.538 83.6615 290.416 83.4358 291.368 83.4358C292.457 83.4358 293.424 83.7057 294.268 84.2455C295.122 84.7754 295.74 85.531 296.123 86.5124H294.106C293.841 85.9727 293.473 85.5703 293.002 85.3053C292.531 85.0404 291.986 84.9079 291.368 84.9079C290.691 84.9079 290.087 85.06 289.557 85.3642C289.027 85.6684 288.61 86.1051 288.306 86.6743C288.012 87.2435 287.864 87.906 287.864 88.6616C287.864 89.4173 288.012 90.0797 288.306 90.6489C288.61 91.2181 289.027 91.6597 289.557 91.9737C290.087 92.278 290.691 92.4301 291.368 92.4301C291.986 92.4301 292.531 92.2976 293.002 92.0326C293.473 91.7676 293.841 91.3653 294.106 90.8255H296.123C295.74 91.8069 295.122 92.5625 294.268 93.0925C293.424 93.6224 292.457 93.8874 291.368 93.8874C290.406 93.8874 289.528 93.6666 288.733 93.225C287.938 92.7735 287.305 92.1504 286.834 91.3555C286.373 90.5606 286.142 89.6626 286.142 88.6616ZM302.753 93.9021C301.801 93.9021 300.923 93.6813 300.118 93.2397C299.323 92.7883 298.69 92.1651 298.219 91.3702C297.758 90.5655 297.528 89.6626 297.528 88.6616C297.528 87.6606 297.758 86.7627 298.219 85.9678C298.69 85.1728 299.323 84.5546 300.118 84.113C300.923 83.6615 301.801 83.4358 302.753 83.4358C303.715 83.4358 304.593 83.6615 305.388 84.113C306.193 84.5546 306.826 85.1728 307.287 85.9678C307.748 86.7627 307.979 87.6606 307.979 88.6616C307.979 89.6626 307.748 90.5655 307.287 91.3702C306.826 92.1651 306.193 92.7883 305.388 93.2397C304.593 93.6813 303.715 93.9021 302.753 93.9021ZM302.753 92.4448C303.43 92.4448 304.034 92.2927 304.564 91.9884C305.094 91.6744 305.506 91.2328 305.8 90.6636C306.105 90.0846 306.257 89.4173 306.257 88.6616C306.257 87.906 306.105 87.2435 305.8 86.6743C305.506 86.1051 305.094 85.6684 304.564 85.3642C304.034 85.06 303.43 84.9079 302.753 84.9079C302.076 84.9079 301.473 85.06 300.943 85.3642C300.413 85.6684 299.996 86.1051 299.691 86.6743C299.397 87.2435 299.25 87.906 299.25 88.6616C299.25 89.4173 299.397 90.0846 299.691 90.6636C299.996 91.2328 300.413 91.6744 300.943 91.9884C301.473 92.2927 302.076 92.4448 302.753 92.4448ZM312.972 83.5683C314.061 83.5683 315.013 83.7793 315.828 84.2013C316.652 84.6135 317.285 85.2121 317.727 85.9972C318.178 86.7725 318.404 87.6802 318.404 88.7205C318.404 89.7607 318.178 90.6636 317.727 91.4291C317.285 92.1945 316.652 92.7834 315.828 93.1955C315.013 93.5979 314.061 93.7991 312.972 93.7991H309.63V83.5683H312.972ZM312.972 92.4301C314.169 92.4301 315.087 92.1062 315.725 91.4585C316.363 90.8108 316.682 89.8981 316.682 88.7205C316.682 87.533 316.363 86.6056 315.725 85.9383C315.087 85.271 314.169 84.9373 312.972 84.9373H311.309V92.4301H312.972ZM321.745 84.9226V87.9256H325.278V89.2946H321.745V92.4301H325.72V93.7991H320.067V83.5536H325.72V84.9226H321.745ZM328.464 93.9021C328.16 93.9021 327.904 93.7991 327.698 93.593C327.492 93.3869 327.389 93.1317 327.389 92.8275C327.389 92.5233 327.492 92.2681 327.698 92.0621C327.904 91.856 328.16 91.7529 328.464 91.7529C328.758 91.7529 329.009 91.856 329.215 92.0621C329.421 92.2681 329.524 92.5233 329.524 92.8275C329.524 93.1317 329.421 93.3869 329.215 93.593C329.009 93.7991 328.758 93.9021 328.464 93.9021ZM333.016 83.5683V93.7991H331.337V83.5683H333.016ZM338.56 83.5683C339.65 83.5683 340.602 83.7793 341.416 84.2013C342.241 84.6135 342.874 85.2121 343.315 85.9972C343.767 86.7725 343.992 87.6802 343.992 88.7205C343.992 89.7607 343.767 90.6636 343.315 91.4291C342.874 92.1945 342.241 92.7834 341.416 93.1955C340.602 93.5979 339.65 93.7991 338.56 93.7991H335.219V83.5683H338.56ZM338.56 92.4301C339.758 92.4301 340.675 92.1062 341.313 91.4585C341.951 90.8108 342.27 89.8981 342.27 88.7205C342.27 87.533 341.951 86.6056 341.313 85.9383C340.675 85.271 339.758 84.9373 338.56 84.9373H336.897V92.4301H338.56Z" fill="#4F4F4F"/>
</g>
<defs>
<filter id="filter0_bd_22_13832" x="0.364861" y="-4.74488" width="389.132" height="136.367" filterUnits="userSpaceOnUse" color-interpolation-filters="sRGB">
<feFlood flood-opacity="0" result="BackgroundImageFix"/>
<feGaussianBlur in="BackgroundImageFix" stdDeviation="5.25733"/>
<feComposite in2="SourceAlpha" operator="in" result="effect1_backgroundBlur_22_13832"/>
<feColorMatrix in="SourceAlpha" type="matrix" values="0 0 0 0 0 0 0 0 0 0 0 0 0 0 0 0 0 0 127 0" result="hardAlpha"/>
<feOffset dy="5"/>
<feGaussianBlur stdDeviation="5"/>
<feComposite in2="hardAlpha" operator="out"/>
<feColorMatrix type="matrix" values="0 0 0 0 0.2 0 0 0 0 0.189167 0 0 0 0 0.189167 0 0 0 0.25 0"/>
<feBlend mode="normal" in2="effect1_backgroundBlur_22_13832" result="effect2_dropShadow_22_13832"/>
<feBlend mode="normal" in="SourceGraphic" in2="effect2_dropShadow_22_13832" result="shape"/>
</filter>
</defs>
</svg>
