<svg width="43" height="43" viewBox="0 0 43 43" fill="none" xmlns="http://www.w3.org/2000/svg">
<path d="M27.8838 27.6653L34.0174 33.7988L27.8838 27.6653ZM9.48315 19.7793C9.48315 21.1601 9.75512 22.5274 10.2835 23.8031C10.8119 25.0788 11.5864 26.2379 12.5628 27.2143C13.5392 28.1907 14.6983 28.9652 15.974 29.4936C17.2497 30.022 18.617 30.294 19.9978 30.294C21.3786 30.294 22.7459 30.022 24.0216 29.4936C25.2973 28.9652 26.4564 28.1907 27.4328 27.2143C28.4092 26.2379 29.1837 25.0788 29.7121 23.8031C30.2405 22.5274 30.5125 21.1601 30.5125 19.7793C30.5125 16.9906 29.4047 14.3162 27.4328 12.3443C25.4609 10.3724 22.7865 9.26465 19.9978 9.26465C17.2091 9.26465 14.5347 10.3724 12.5628 12.3443C10.5909 14.3162 9.48315 16.9906 9.48315 19.7793V19.7793Z" stroke="#F2994A" stroke-width="3.1544" stroke-linecap="round" stroke-linejoin="round"/>
</svg>
