<svg width="27" height="33" viewBox="0 0 27 33" fill="none" xmlns="http://www.w3.org/2000/svg">
<path d="M24.9357 13.7278C24.9357 19.9217 13.72 30.5513 13.72 30.5513C13.72 30.5513 2.50439 19.9217 2.50439 13.7278C2.50439 10.7533 3.68604 7.90053 5.78938 5.79719C7.89272 3.69385 10.7455 2.51221 13.72 2.51221C16.6946 2.51221 19.5473 3.69385 21.6507 5.79719C23.754 7.90053 24.9357 10.7533 24.9357 13.7278V13.7278Z" stroke="#F2994A" stroke-width="3.1544"/>
<path d="M13.7202 15.1298C14.092 15.1298 14.4486 14.9821 14.7115 14.7192C14.9744 14.4563 15.1221 14.0997 15.1221 13.7279C15.1221 13.356 14.9744 12.9994 14.7115 12.7365C14.4486 12.4736 14.092 12.3259 13.7202 12.3259C13.3484 12.3259 12.9918 12.4736 12.7289 12.7365C12.4659 12.9994 12.3182 13.356 12.3182 13.7279C12.3182 14.0997 12.4659 14.4563 12.7289 14.7192C12.9918 14.9821 13.3484 15.1298 13.7202 15.1298Z" fill="white" stroke="#F2994A" stroke-width="3.1544" stroke-linecap="round" stroke-linejoin="round"/>
</svg>
